<svg width="50" height="50" viewBox="0 0 50 50" fill="none" xmlns="http://www.w3.org/2000/svg">
<path d="M25 4.16675C13.5 4.16675 4.16667 13.5001 4.16667 25.0001C4.16667 36.5001 13.5 45.8334 25 45.8334C36.5 45.8334 45.8333 36.5001 45.8333 25.0001C45.8333 13.5001 36.5 4.16675 25 4.16675ZM25 10.4167C28.4583 10.4167 31.25 13.2084 31.25 16.6667C31.25 20.1251 28.4583 22.9167 25 22.9167C21.5417 22.9167 18.75 20.1251 18.75 16.6667C18.75 13.2084 21.5417 10.4167 25 10.4167ZM25 40.0001C19.7917 40.0001 15.1875 37.3334 12.5 33.2917C12.5625 29.1459 20.8333 26.8751 25 26.8751C29.1458 26.8751 37.4375 29.1459 37.5 33.2917C34.8125 37.3334 30.2083 40.0001 25 40.0001Z" fill="#086174"/>
</svg>
