<svg width="292" height="133" viewBox="0 0 292 133" fill="none" xmlns="http://www.w3.org/2000/svg">
<path d="M83.96 0.172947C96.203 0.525791 104.915 1.69019 116.036 4.33653C133.823 8.60596 150.29 16.1569 164.15 26.46C169.562 30.4471 176.129 36.7983 174.875 36.7983C174.314 36.7983 172.004 35.4575 169.034 33.411C167.516 32.3525 166.196 31.5057 166.13 31.5057C166.031 31.5057 165.041 30.9058 163.919 30.1648C158.969 26.9539 152.336 23.2491 146.825 20.638C130.391 12.8754 114.947 8.64125 95.51 6.59474C87.722 5.74791 69.44 5.7832 61.19 6.59474C50.135 7.72385 38.915 9.48808 30.665 11.3934C28.949 11.8169 26.87 12.2756 26.045 12.452C24.659 12.7343 14.066 15.5923 9.87497 16.8273C5.08998 18.2034 -6.29503 22.1552 -13.555 24.9074C-17.416 26.3894 -19.33 27.1656 -30.55 31.7526C-32.926 32.7406 -35.368 33.658 -35.995 33.7992C-37.051 34.0461 -37.117 34.0461 -36.655 33.4463C-35.368 31.7879 -27.778 27.2715 -19.495 23.2843C-4.11702 15.9099 13.505 9.77035 31.325 5.57149C32.678 5.25393 34.394 4.8658 35.12 4.68937C41.654 3.13685 56.768 1.01978 65.15 0.490509C73.565 -0.0740433 75.776 -0.109329 83.96 0.172947Z" fill="#077187"/>
<path d="M89.3389 10.3348C99.7669 11.1463 112.373 13.6162 122.24 16.7565C128.642 18.7678 137.123 22.0492 137.717 22.6844C137.915 22.8961 138.245 23.0372 138.509 23.0372C139.532 23.0372 151.841 29.2473 156.725 32.2465C165.47 37.5744 175.799 45.6193 175.436 46.7837C175.238 47.4541 170.42 47.4894 157.715 46.8896C131.876 45.6546 117.224 45.0548 82.6399 43.6787C75.0169 43.3964 64.9189 42.973 60.1999 42.7966C55.4809 42.5849 47.6269 42.2673 42.7429 42.0909C23.2729 41.3146 7.79587 40.3972 4.26486 39.7621C1.36086 39.2328 5.02386 38.8447 16.2109 38.4918C31.5889 37.9979 81.9469 38.6683 82.7719 39.374C83.1679 39.6915 83.2009 39.6915 83.0029 39.3387C82.7059 38.7741 82.6399 38.7741 103.43 39.4445C118.709 39.9032 127.619 40.1855 151.775 41.0323C156.23 41.1735 159.893 41.244 159.959 41.2088C160.19 40.997 153.293 36.7982 148.31 34.0813C130.16 24.2369 112.736 18.6266 92.2099 16.1214C85.3129 15.2746 69.7039 15.2746 62.8399 16.1214C43.8319 18.4502 28.1899 23.4606 9.08287 33.2697C6.44286 34.6105 3.90186 35.7396 3.43987 35.7396C1.92186 35.7396 1.95486 33.9401 3.47285 33.0933C3.83586 32.8816 4.62787 32.317 5.25487 31.7878C8.09286 29.4943 18.7849 23.6723 25.2199 20.9554C37.1989 15.9097 48.1879 12.9458 62.1799 11.0052C67.8559 10.2289 83.1679 9.84077 89.3389 10.3348Z" fill="#077187"/>
<path d="M203.09 37.6804C216.026 38.4567 233.252 40.2915 239.06 41.5264C239.423 41.597 240.545 41.7734 241.535 41.9146C246.188 42.5497 255.725 44.9138 261.5 46.8191C265.889 48.3011 266.945 48.7245 270.872 50.8063C277.934 54.5112 281.993 58.6395 284.402 64.4967C285.227 66.5432 285.689 70.1069 285.161 70.4598C284.831 70.6715 283.148 68.3074 283.115 67.6017C283.082 67.4253 282.224 66.1198 281.201 64.6731C276.251 57.7221 266.912 53.1351 250.412 49.536C246.419 48.6539 236.486 46.8897 233.285 46.5016C232.46 46.3957 230.15 46.0782 228.17 45.7959C221.669 44.9138 216.125 44.2081 206.885 43.1495C190.418 41.2442 181.277 39.8681 179.033 38.9507C175.106 37.2923 186.359 36.7277 203.09 37.6804Z" fill="#077187"/>
<path d="M235.067 71.2009C240.149 72.1183 244.637 74.3412 249.026 78.1519C253.646 82.1744 256.781 87.5376 258.398 94.2064C259.454 98.4758 259.454 105.18 258.398 109.308C254.933 123.069 243.482 132.455 230.15 132.455C224.54 132.455 219.194 130.796 214.838 127.656C212.132 125.751 209.162 122.434 208.733 120.846C208.37 119.611 209.393 119.858 211.901 121.622C217.379 125.468 222.659 127.268 228.335 127.268C232.361 127.233 235.661 126.421 239.39 124.516C245.726 121.234 249.884 116.083 252.293 108.426C253.217 105.497 253.151 97.8407 252.161 94.5592C250.874 90.2192 249.191 87.3612 245.99 83.9033C241.634 79.2457 237.476 77.0934 231.272 76.2466C224.474 75.3644 218.171 77.2345 211.175 82.2802C207.446 84.9618 206.852 84.5737 209.327 81.0453C214.706 73.2827 224.903 69.4014 235.067 71.2009Z" fill="#077187"/>
<path d="M-0.355173 71.2008C3.04385 71.8712 4.99086 72.5769 8.02687 74.2353C15.8479 78.5047 21.3259 86.1615 23.24 95.5119C24.131 99.8167 23.801 106.485 22.448 110.896C19.0819 122.011 10.2049 130.232 -0.487173 132.067C-3.58919 132.631 -9.99123 132.349 -12.7302 131.573C-17.4823 130.197 -22.9933 126.457 -25.4023 122.999C-27.7123 119.682 -27.1843 119.259 -23.6533 121.623C-14.8423 127.445 -7.45021 128.715 0.931835 125.892C4.69386 124.586 7.36687 122.787 10.6999 119.188C15.4849 114.036 17.5969 108.567 17.5639 101.546C17.5309 95.7236 15.8149 90.6427 12.3829 85.9851C8.62088 80.8688 3.50585 77.6579 -2.76418 76.4582C-10.0902 75.0821 -16.6243 76.8111 -23.8513 81.9979C-27.5803 84.7148 -28.0753 84.7148 -26.7883 82.0332C-26.1613 80.7277 -22.8283 77.0933 -20.9803 75.7173C-15.5353 71.6595 -7.31821 69.86 -0.355173 71.2008Z" fill="#077187"/>
<path d="M289.583 77.058C289.748 77.3403 289.451 77.8343 288.725 78.5047C286.646 80.3395 282.191 81.2568 275.03 81.2568C267.572 81.2568 261.368 80.2689 260.345 78.9634C259.487 77.8343 261.17 77.6226 274.337 77.3403C281.432 77.1639 287.702 76.9522 288.263 76.811C288.956 76.6699 289.385 76.7758 289.583 77.058Z" fill="#077187"/>
<path d="M290.045 85.6674C290.21 86.1614 290.54 91.8422 290.771 98.2993L291.167 110.014L290.375 111.284C288.131 114.918 282.488 116.647 272.72 116.683C265.031 116.718 261.104 115.836 262.292 114.319C262.853 113.578 264.833 113.084 270.971 112.096C278.297 110.966 282.488 110.049 284.039 109.238C285.194 108.638 285.26 108.532 285.326 106.662C285.755 96.1116 286.646 89.1606 287.933 86.4436C288.857 84.5736 289.55 84.3266 290.045 85.6674Z" fill="#077187"/>
<path d="M232.295 86.8668C235.43 87.7842 237.905 89.4778 238.994 91.4538C239.753 92.8299 239.324 92.8299 237.509 91.5244C234.968 89.7248 233.12 89.1956 229.49 89.1956C226.355 89.1956 226.091 89.2661 224.111 90.3953C217.775 94.0649 215.663 101.969 219.326 108.179C223.286 114.918 231.899 116.224 238.235 111.107C239.225 110.296 239.423 110.225 239.489 110.754C239.654 111.46 237.542 113.824 235.76 114.918C226.85 120.493 215.135 113.683 214.541 102.568C214.145 94.947 218.732 88.4546 225.695 86.7609C228.533 86.0552 229.589 86.0905 232.295 86.8668Z" fill="#077187"/>
<path d="M-5.30496 86.4083C-3.58897 86.7612 -1.14698 87.7491 0.140016 88.596C1.59201 89.5486 3.275 91.4187 3.275 92.0891C3.275 92.6184 2.74701 92.689 2.45001 92.195C2.35101 92.0186 1.09701 91.2423 -0.288983 90.5366C-2.73097 89.2311 -2.96197 89.1958 -6.29496 89.1958C-9.39695 89.2311 -9.95795 89.3369 -11.6409 90.219C-15.6669 92.3361 -18.2409 96.3586 -18.4389 100.91C-18.7689 107.544 -14.7099 112.836 -8.34095 114.071C-4.94197 114.706 -0.750981 113.542 2.28501 111.107C3.704 109.943 3.968 110.508 2.78001 112.166C0.668014 115.13 -3.19297 116.929 -7.41696 116.859C-12.8289 116.824 -17.8119 113.436 -20.2209 108.144C-21.1779 106.062 -21.3099 105.356 -21.4089 102.357C-21.5079 99.7811 -21.4089 98.4756 -20.9469 97.0642C-19.5279 92.4067 -16.0629 88.6665 -11.7729 87.1493C-10.0569 86.5142 -6.65796 86.1613 -5.30496 86.4083Z" fill="#077187"/>
<path d="M150.125 110.931C182.597 111.884 195.995 113.013 195.995 114.777C195.995 115.871 188.108 116.824 174.05 117.424C171.311 117.53 167.549 117.706 165.635 117.777C155.405 118.2 110.591 118.341 90.065 117.988C50.6629 117.318 29.6749 116.012 29.1139 114.178C28.6189 112.59 36.4069 111.778 60.86 110.896C71.651 110.508 136.397 110.543 150.125 110.931Z" fill="#077187"/>
</svg>
