<svg width="25" height="20" viewBox="0 0 25 20" fill="none" xmlns="http://www.w3.org/2000/svg">
<path d="M23.6484 4.99989C22.425 3.42079 20.5391 2.49757 18.5415 2.49997H8.29993C8.09301 1.06629 6.86521 0.00171873 5.41663 0H2.91666C2.68656 0 2.5 0.18656 2.5 0.416662V1.24998H3.10078e-05V2.08331H2.5V3.74995H3.10078e-05V4.58328H2.5V5.4166C2.5 5.6467 2.68656 5.83326 2.91666 5.83326H5.41663C6.86521 5.83154 8.09301 4.76697 8.29993 3.33329H18.5415C21.6429 3.32808 24.1615 5.83816 24.1666 8.93968C24.1691 10.4431 23.5687 11.8847 22.4998 12.9419V12.0832C22.4998 11.9727 22.4558 11.8667 22.3777 11.7886L21.7444 11.1553C19.5237 8.92317 16.5366 7.62017 13.3899 7.51116C13.3713 7.50611 13.3523 7.50236 13.3332 7.49991C13.3182 7.50194 13.3033 7.50496 13.2886 7.50907C13.1636 7.50532 13.0432 7.49991 12.9199 7.49991C9.86309 7.49882 6.91239 8.62052 4.62831 10.652L4.37539 10.877L2.07876 11.5661C0.841375 11.9311 -0.00590642 13.0698 3.10078e-05 14.3598V16.2498C3.10078e-05 16.4799 0.186591 16.6665 0.416693 16.6665H1.70001C1.92871 18.2588 3.40499 19.3643 4.99742 19.1357C6.2773 18.9519 7.28281 17.9463 7.46661 16.6665H15.0332C15.2619 18.2588 16.7382 19.3643 18.3306 19.1357C19.6105 18.9519 20.616 17.9463 20.7998 16.6665H22.0831C22.3132 16.6665 22.4998 16.4799 22.4998 16.2498V14.0494C25.316 11.8677 25.8302 7.81605 23.6484 4.99989ZM5.41668 4.99999H3.33338V0.833375H5.41668C6.56724 0.833375 7.49999 1.76612 7.49999 2.91668C7.49999 4.06724 6.56724 4.99999 5.41668 4.99999ZM4.58336 18.3332C3.4328 18.3332 2.50005 17.4004 2.50005 16.2499C2.50005 15.0993 3.4328 14.1665 4.58336 14.1665C5.73392 14.1665 6.66667 15.0993 6.66667 16.2499C6.66526 17.3998 5.73335 18.3318 4.58336 18.3332ZM12.9166 15.8332H7.47041C7.46583 15.8011 7.45791 15.7703 7.45208 15.7386C7.44499 15.6969 7.43833 15.659 7.42958 15.6199C7.41791 15.5674 7.40374 15.5157 7.38791 15.4644C7.37749 15.4274 7.36791 15.3899 7.35583 15.3536C7.33874 15.3003 7.31833 15.2482 7.29833 15.1961C7.28541 15.1632 7.27416 15.1299 7.25999 15.0978C7.235 15.0395 7.20666 14.9832 7.17666 14.927C7.16416 14.9028 7.15333 14.8774 7.14041 14.8536C7.09875 14.7753 7.05083 14.6986 7.00083 14.6245C6.98833 14.6061 6.97416 14.589 6.95917 14.5711C6.92042 14.5157 6.88083 14.4611 6.83833 14.409C6.81667 14.3828 6.79333 14.3582 6.77083 14.3328C6.73417 14.2911 6.6975 14.2495 6.65875 14.2078C6.63292 14.1811 6.60542 14.1561 6.57834 14.1307C6.54 14.0949 6.50167 14.059 6.46167 14.0249C6.4325 13.9999 6.40209 13.9765 6.37167 13.9528C6.33001 13.9211 6.29042 13.8903 6.24667 13.8607C6.21459 13.8382 6.18209 13.8165 6.14876 13.7953C6.10709 13.7678 6.06251 13.7416 6.01834 13.7161C5.98418 13.6966 5.94918 13.6774 5.91418 13.6591C5.86876 13.6357 5.8221 13.6136 5.77543 13.5924C5.7396 13.5761 5.70376 13.5599 5.66751 13.5453C5.61835 13.5253 5.56835 13.5078 5.51835 13.4903C5.48168 13.4782 5.44585 13.4649 5.40877 13.4541C5.35543 13.4382 5.30127 13.4253 5.2471 13.4124C5.21127 13.4041 5.17627 13.3945 5.14002 13.3874C5.07919 13.3753 5.01711 13.367 4.95461 13.3591C4.92377 13.3549 4.89336 13.3491 4.86211 13.3461C4.77502 13.3386 4.67961 13.3332 4.58336 13.3332C4.48711 13.3332 4.3917 13.3386 4.29795 13.3478C4.2667 13.3507 4.23628 13.3566 4.20545 13.3607C4.14295 13.3686 4.08045 13.377 4.02003 13.3891C3.98378 13.3961 3.94878 13.4057 3.91295 13.4141C3.85879 13.427 3.80462 13.4399 3.75129 13.4557C3.7142 13.4666 3.67837 13.4799 3.64171 13.492C3.59171 13.5095 3.54171 13.527 3.49254 13.547C3.45629 13.5616 3.42046 13.5778 3.38463 13.5941C3.33796 13.6153 3.29129 13.6357 3.24588 13.6607C3.21088 13.6791 3.17588 13.6982 3.14171 13.7178C3.09755 13.7432 3.0538 13.7695 3.0113 13.797C2.97796 13.8182 2.94546 13.8386 2.91338 13.8624C2.87171 13.892 2.83005 13.9228 2.78838 13.9545C2.75797 13.9782 2.72755 14.0015 2.69838 14.0265C2.65672 14.0607 2.62005 14.0965 2.58172 14.1324C2.55464 14.1578 2.52714 14.1828 2.5013 14.2095C2.46255 14.249 2.42589 14.2928 2.38922 14.3345C2.36672 14.3599 2.34339 14.3845 2.32172 14.4107C2.28006 14.4628 2.23839 14.5174 2.20089 14.5728C2.18797 14.5907 2.17381 14.6078 2.16131 14.6261C2.11131 14.7003 2.06506 14.777 2.02173 14.8553C2.00881 14.879 1.99798 14.9045 1.98548 14.9286C1.95673 14.9849 1.92839 15.0411 1.90214 15.0995C1.88798 15.1315 1.87673 15.1649 1.86381 15.1978C1.84381 15.2499 1.82214 15.3019 1.80631 15.3553C1.79423 15.3915 1.78464 15.429 1.77423 15.4661C1.76006 15.5174 1.7459 15.569 1.73256 15.6215C1.72381 15.6607 1.71715 15.7007 1.71006 15.7403C1.70423 15.7719 1.69631 15.8028 1.69173 15.8349H0.833406V14.3599C0.829135 13.4385 1.43423 12.6252 2.31797 12.3645L4.64503 11.6666H12.9166V15.8332ZM12.9166 10.8333H5.71418C7.76587 9.21431 10.3031 8.33365 12.9166 8.33328V10.8333ZM13.7499 8.36578C15.5511 8.48859 17.2985 9.03218 18.8515 9.95285L17.3845 10.8333H13.7499V8.36578ZM17.9165 18.3332C16.766 18.3332 15.8332 17.4004 15.8332 16.2499C15.8332 15.0993 16.766 14.1665 17.9165 14.1665C19.0671 14.1665 19.9998 15.0993 19.9998 16.2499C19.9984 17.3998 19.0665 18.3318 17.9165 18.3332ZM21.6665 15.8332H20.8036C20.799 15.8011 20.7911 15.7703 20.7852 15.7386C20.7782 15.6969 20.7715 15.659 20.7627 15.6199C20.7511 15.5674 20.7369 15.5157 20.7211 15.4644C20.7107 15.4274 20.7011 15.3899 20.689 15.3536C20.6719 15.3003 20.6515 15.2482 20.6315 15.1961C20.6186 15.1632 20.6073 15.1299 20.5932 15.0978C20.5682 15.0395 20.5398 14.9832 20.5098 14.927C20.4973 14.9028 20.4865 14.8774 20.4736 14.8536C20.4319 14.7753 20.384 14.6986 20.334 14.6245C20.3215 14.6061 20.3073 14.589 20.2944 14.5711C20.2557 14.5157 20.2161 14.4611 20.1736 14.409C20.1519 14.3828 20.1286 14.3582 20.1061 14.3328C20.0694 14.2911 20.0328 14.2495 19.994 14.2078C19.9682 14.1811 19.9407 14.1561 19.9136 14.1307C19.8753 14.0949 19.8369 14.059 19.7969 14.0249C19.7678 13.9999 19.7373 13.9765 19.7069 13.9528C19.6653 13.9211 19.6236 13.8903 19.5819 13.8607C19.5498 13.8382 19.5173 13.8165 19.484 13.7953C19.4423 13.7678 19.3978 13.7416 19.3536 13.7161C19.3194 13.6966 19.2844 13.6774 19.2494 13.6591C19.204 13.6357 19.1574 13.6136 19.1107 13.5924C19.0749 13.5761 19.039 13.5599 19.0028 13.5453C18.9536 13.5253 18.9036 13.5078 18.8536 13.4903C18.8169 13.4782 18.7811 13.4649 18.744 13.4541C18.6907 13.4382 18.6365 13.4253 18.5824 13.4124C18.5465 13.4041 18.5115 13.3945 18.4753 13.3874C18.4144 13.3753 18.3524 13.367 18.2899 13.3591C18.259 13.3549 18.2286 13.3491 18.1974 13.3461C18.1082 13.3386 18.0128 13.3332 17.9165 13.3332C17.8203 13.3332 17.7249 13.3386 17.6311 13.3478C17.5999 13.3507 17.5695 13.3566 17.5386 13.3607C17.4761 13.3686 17.4136 13.377 17.3532 13.3891C17.317 13.3961 17.282 13.4057 17.2461 13.4141C17.192 13.427 17.1378 13.4399 17.0845 13.4557C17.0474 13.4666 17.0115 13.4799 16.9749 13.492C16.9249 13.5095 16.8749 13.527 16.8257 13.547C16.7895 13.5616 16.7536 13.5778 16.7178 13.5941C16.6711 13.6153 16.6245 13.6357 16.5791 13.6607C16.5441 13.6791 16.5091 13.6982 16.4749 13.7178C16.4307 13.7432 16.387 13.7695 16.3445 13.797C16.3111 13.8182 16.2786 13.8386 16.2466 13.8624C16.2049 13.892 16.1632 13.9228 16.1216 13.9545C16.0911 13.9782 16.0607 14.0015 16.0316 14.0265C15.9899 14.0607 15.9532 14.0965 15.9149 14.1324C15.8878 14.1578 15.8603 14.1828 15.8345 14.2095C15.7957 14.249 15.7591 14.2928 15.7224 14.3345C15.6999 14.3599 15.6766 14.3845 15.6549 14.4107C15.6132 14.4628 15.5716 14.5174 15.5341 14.5728C15.5211 14.5907 15.507 14.6078 15.4945 14.6261C15.4445 14.7003 15.3982 14.777 15.3549 14.8553C15.342 14.879 15.3311 14.9045 15.3186 14.9286C15.2899 14.9849 15.2616 15.0411 15.2353 15.0995C15.2211 15.1315 15.2099 15.1649 15.197 15.1978C15.177 15.2499 15.1553 15.3019 15.1395 15.3553C15.1274 15.3915 15.1178 15.429 15.1074 15.4661C15.0932 15.5174 15.0791 15.569 15.0657 15.6215C15.057 15.6607 15.0503 15.7007 15.0432 15.7403C15.0374 15.7719 15.0295 15.8028 15.0249 15.8349H13.7499V11.6666H17.4999C17.5755 11.6666 17.6497 11.646 17.7145 11.607L19.6273 10.4583C20.1722 10.8425 20.6833 11.2724 21.1552 11.7432L21.6665 12.2557V15.8332Z" fill="#077187"/>
</svg>
