<svg width="100" height="61" viewBox="0 0 100 61" fill="none" xmlns="http://www.w3.org/2000/svg">
<path d="M97.3333 18C95.5556 17.5556 91.8889 16.5556 91.6667 18C91.4445 19.4444 91 22 91 22L88 22.2222C88 22.2222 87.6667 21.8889 87.3333 20.6667C87 19.4445 83.7778 8.66667 81.2222 5C78.6667 1.33333 76.8889 1.77778 76.8889 1.77778V1.88889C76.8889 1.88889 66.8889 0 49.8889 0C32.8889 0 22.8889 1.88889 22.8889 1.88889V1.77778C22.8889 1.77778 21.2222 1.33333 18.5556 5C16 8.66667 12.7778 19.4445 12.4444 20.6667C12.1111 21.8889 11.7778 22.2222 11.7778 22.2222L8.88889 22C8.88889 22 8.55556 19.4444 8.22222 18C8 16.5556 4.33333 17.5556 2.55556 18C0.888889 18.3333 0 21.1111 0 21.6667C0 22.2222 0.444444 22.6667 1.22222 23C2 23.3333 6.77778 23.6667 7.55556 23.6667C8.44444 23.6667 8.33333 23.4445 8.33333 23.4445L11.2222 23.6667C11.2222 23.6667 11 24.6667 10.4444 24.8889C9.88889 25.1111 9.77778 25.6667 9.44444 26.1111C9.11111 26.5556 5.77778 29 5.22222 30.4445C4 33.2222 5 38.6667 5 42.7778C5 46.7778 5.77778 53.2222 6.11111 55.8889C6.44444 58.5556 8.66667 60.4445 8.66667 60.4445C8.66667 60.4445 17.4444 60.4445 18.8889 60.4445C20.3333 60.4445 23.1111 60 24.5556 60C26 60 50 60 50 60C50 60 74 60 75.4445 60C76.8889 60 79.6667 60.4445 81.1111 60.4445C82.5556 60.4445 91.3333 60.4445 91.3333 60.4445C91.3333 60.4445 93.6667 58.5556 93.8889 55.8889C94.2222 53.2222 95 46.7778 95 42.7778C95 38.7778 96 33.3333 94.7778 30.4445C94.2222 29.1111 90.8889 26.6667 90.5556 26.1111C90.2222 25.6667 90.1111 25.1111 89.5556 24.8889C89 24.6667 88.7778 23.6667 88.7778 23.6667L91.6667 23.4445C91.6667 23.4445 91.5556 23.6667 92.4444 23.6667C93.3333 23.6667 98 23.4444 98.7778 23C99.5556 22.5556 100 22.2222 100 21.6667C100 21.1111 99.1111 18.3333 97.3333 18ZM15.4444 20.6667C15.8889 18.5556 20.1111 4.66667 21.3333 3.77778C21.3333 3.77778 34.6667 2.77778 49.8889 2.77778C65.1111 2.77778 78.4444 3.77778 78.4444 3.77778C79.7778 4.66667 83.8889 18.5556 84.3333 20.6667C84.7778 22.7778 84.1111 22.7778 84.1111 22.7778H50H15.6667C15.6667 22.7778 15 22.7778 15.4444 20.6667ZM19.1111 48.2222C18.3333 48.2222 9.66667 48.1111 9.66667 48.1111C9.66667 48.1111 11.5556 51.7778 11.8889 52.4445C12.2222 53.2222 12.2222 54.5556 11.1111 54.2222C10.1111 53.8889 9 51.6667 8.66667 50.4445C8.33333 49.1111 7.88889 45.8889 7.88889 45.8889L21 46.8889C21 47 19.8889 48.2222 19.1111 48.2222ZM20.4444 37.7778C17.2222 37.7778 13 36.5556 11.7778 36.2222C10.5556 35.8889 9.66667 34.5556 9.66667 32.7778C9.66667 31 9.66667 29.1111 11.6667 27.1111C11.6667 27.1111 14 27.1111 15.8889 28.6667C17.6667 30.1111 19.2222 31.4445 21.2222 32.1111C24.2222 33 26.4444 36.2222 26.4444 36.2222C26.4444 36.2222 23.6667 37.7778 20.4444 37.7778ZM73.5556 56.2222C72.4444 56.2222 50 56.2222 50 56.2222C50 56.2222 27.6667 56.2222 26.4444 56.2222C25.3333 56.2222 23.6667 56 25.1111 54.4445C26.2222 53.3333 28.1111 52.4445 31.7778 52.4445C36.3333 52.4445 43 52.4445 49.8889 52.4445C56.7778 52.4445 63.4444 52.4445 68 52.4445C71.6667 52.4445 73.5556 53.3333 74.6667 54.4445C76.3333 56 74.6667 56.2222 73.5556 56.2222ZM92.1111 46C92.1111 46 91.6667 49.2222 91.3333 50.5556C91 51.8889 89.8889 54 88.8889 54.3333C87.8889 54.6667 87.7778 53.2222 88.1111 52.5556C88.4445 51.8889 90.3333 48.2222 90.3333 48.2222C90.3333 48.2222 81.6667 48.3333 80.8889 48.3333C80.1111 48.3333 79.1111 47 79.1111 47L92.1111 46ZM90.2222 32.7778C90.2222 34.5556 89.4445 35.8889 88.1111 36.2222C86.7778 36.5556 82.5556 37.7778 79.4445 37.7778C76.2222 37.7778 73.4444 36.2222 73.4444 36.2222C73.4444 36.2222 75.5556 33 78.6667 32.1111C80.6667 31.5556 82.1111 30.1111 84 28.6667C86 27.1111 88.2222 27.1111 88.2222 27.1111C90.2222 29.1111 90.2222 31 90.2222 32.7778Z" fill="white"/>
</svg>
