<svg width="25" height="25" viewBox="0 0 25 25" fill="none" xmlns="http://www.w3.org/2000/svg">
<g clip-path="url(#clip0)">
<path d="M24.7374 11.5177L10.6124 3.43917C9.52292 2.81506 8.03168 3.15153 7.31347 4.17935L4.57711 8.09114C4.30856 8.47551 4.16667 8.92604 4.16667 9.39489C4.16667 10.2048 4.60206 10.9593 5.3024 11.3635L8.28138 13.0838L7.74325 13.8019C7.4518 14.1904 7.29159 14.6719 7.29159 15.1576C7.29159 15.6571 7.4745 16.1269 7.76913 16.5153L6.97626 17.7083H3.12498V16.1407C3.12498 15.8526 2.89202 15.625 2.60413 15.625H0.520846C0.232957 15.625 0 15.8526 0 16.1407V21.3537C0 21.6418 0.232957 21.875 0.520846 21.875H2.60418C2.89207 21.875 3.12502 21.6418 3.12502 21.3537V20.8333H6.97631C8.02357 20.8333 8.99553 20.3131 9.57639 19.4411L10.4301 18.1594C10.5945 18.1951 10.7603 18.2274 10.9298 18.2274C11.7588 18.2274 12.5391 17.7855 12.9653 17.0739L13.5376 16.1192L17.9702 18.679C18.05 18.7254 18.14 18.7488 18.2306 18.7488C18.2809 18.7488 18.3313 18.7416 18.3806 18.7269C18.518 18.6851 18.6324 18.5889 18.6965 18.4606L19.0821 17.6877C19.1454 17.6925 19.2062 17.7062 19.2707 17.7062C21.2808 17.7062 22.9165 16.069 22.9165 14.0571C22.9165 13.8362 22.8839 13.6085 22.8354 13.3757L24.712 12.4367C24.8839 12.3507 24.9942 12.1771 24.9999 11.9847C25.0049 11.7926 24.9042 11.6129 24.7374 11.5177ZM2.08333 20.8333H1.04164V16.6667H2.08328V20.8333H2.08333ZM8.70965 18.8655C8.32259 19.4463 7.6746 19.7932 6.97626 19.7932H3.12498V18.7516H6.97626C7.32621 18.7516 7.65018 18.5781 7.84296 18.2877L8.56419 17.2055L9.45862 17.742L8.70965 18.8655ZM12.0722 16.542C11.708 17.1478 10.851 17.3635 10.2447 16.9988L8.92381 16.2064C8.55965 15.9881 8.33328 15.5884 8.33328 15.1637C8.33328 14.9023 8.41976 14.6434 8.5764 14.4338L9.18987 13.6159L12.6352 15.6037L12.0722 16.542ZM18.0118 17.5034L5.82271 10.4706C5.4438 10.2519 5.20831 9.84401 5.20831 9.40607C5.20831 9.15226 5.28511 8.90861 5.43057 8.70061L6.73823 6.83295L19.6271 14.2686L18.0118 17.5034ZM19.6102 16.6338L20.7004 14.4506L21.8574 13.8721C21.8632 13.9361 21.8748 14.0022 21.8748 14.064C21.8748 15.3836 20.8845 16.4654 19.6102 16.6338ZM20.33 13.4713L7.33803 5.97626L8.16698 4.79239C8.44114 4.40074 8.88972 4.16676 9.36785 4.16676C9.62268 4.16676 9.87443 4.23341 10.0957 4.36002L23.3758 11.9487L20.33 13.4713Z" fill="#077187"/>
<path d="M17.1875 15.625C17.4751 15.625 17.7083 15.3918 17.7083 15.1042C17.7083 14.8165 17.4751 14.5833 17.1875 14.5833C16.8998 14.5833 16.6666 14.8165 16.6666 15.1042C16.6666 15.3918 16.8998 15.625 17.1875 15.625Z" fill="#077187"/>
</g>
<defs>
<clipPath id="clip0">
<rect width="25" height="25" fill="white"/>
</clipPath>
</defs>
</svg>
