<svg width="70" height="70" viewBox="0 0 70 70" fill="none" xmlns="http://www.w3.org/2000/svg">
<path d="M67.9985 9.56955C66.9687 8.53801 65.2978 8.53623 64.2681 9.56517L32.6186 41.1311L21.1996 28.7289C20.2129 27.6579 18.5447 27.5884 17.4718 28.575C16.3998 29.5617 16.3312 31.2307 17.3179 32.3027L30.5969 46.724C31.0832 47.2525 31.7637 47.5595 32.4814 47.5744C32.5007 47.5752 32.5193 47.5752 32.5377 47.5752C33.2351 47.5752 33.906 47.2982 34.4002 46.8057L67.9933 13.3007C69.0256 12.2719 69.0274 10.6011 67.9985 9.56955Z" fill="#0B768C"/>
<path d="M67.3617 32.3617C65.9046 32.3617 64.7236 33.5427 64.7236 35C64.7236 51.3903 51.3903 64.7236 35 64.7236C18.6107 64.7236 5.27639 51.3903 5.27639 35C5.27639 18.6107 18.6107 5.27639 35 5.27639C36.4571 5.27639 37.6383 4.09541 37.6383 2.63826C37.6383 1.18098 36.4571 0 35 0C15.7008 0 0 15.7008 0 35C0 54.2984 15.7008 70 35 70C54.2984 70 70 54.2984 70 35C70 33.5429 68.819 32.3617 67.3617 32.3617Z" fill="#0B768C"/>
</svg>
