<svg width="150" height="150" viewBox="0 0 150 150" fill="none" xmlns="http://www.w3.org/2000/svg">
<path d="M81.427 107.227C84.663 107.227 87.2864 104.603 87.2864 101.367C87.2864 98.1311 84.663 95.5078 81.427 95.5078C78.191 95.5078 75.5676 98.1311 75.5676 101.367C75.5676 104.603 78.191 107.227 81.427 107.227Z" fill="#0B768C"/>
<path d="M101.056 138.281H28.1067C21.645 138.281 16.3879 133.024 16.3879 126.562V78.5153C16.3879 72.0536 21.645 66.7966 28.1067 66.7966H112.482C113.816 66.7966 114.874 66.9144 115.718 67.1561C118.829 68.0473 122.073 66.2478 122.965 63.1371C123.856 60.0264 122.056 56.782 118.946 55.8905C117.038 55.3438 114.923 55.0781 112.482 55.0781H105.44V34.4139C105.44 15.438 89.6685 0 70.2833 0C50.8982 0 35.1271 15.438 35.1271 34.4139V55.0781H28.1067C15.1833 55.0781 4.66919 65.5922 4.66919 78.5156V126.562C4.66919 139.486 15.1833 150 28.1067 150H101.056C104.292 150 106.915 147.377 106.915 144.141C106.915 140.904 104.292 138.281 101.056 138.281ZM46.8458 34.4139C46.8458 21.8997 57.3599 11.7188 70.2833 11.7188C83.2068 11.7188 93.7208 21.8997 93.7208 34.4139V55.0781H46.8458V34.4139Z" fill="#0B768C"/>
<path d="M59.4543 107.227C62.6904 107.227 65.3137 104.603 65.3137 101.367C65.3137 98.1311 62.6904 95.5078 59.4543 95.5078C56.2183 95.5078 53.595 98.1311 53.595 101.367C53.595 104.603 56.2183 107.227 59.4543 107.227Z" fill="#0B768C"/>
<path d="M145.326 97.0342C145.198 85.6702 135.913 76.4648 124.519 76.4648C113.046 76.4648 103.711 85.7994 103.711 97.2729C103.711 100.509 106.334 103.132 109.57 103.132C112.806 103.132 115.43 100.509 115.43 97.2729C115.43 92.2611 119.507 88.1836 124.519 88.1836C129.531 88.1836 133.609 92.2611 133.609 97.2729C133.609 97.3263 133.609 97.3793 133.611 97.432C133.55 101.02 131.395 104.232 128.084 105.645C122.359 108.09 118.66 113.737 118.66 120.03V125.098C118.66 128.334 121.283 130.957 124.519 130.957C127.755 130.957 130.379 128.334 130.379 125.098V120.03C130.379 118.437 131.285 117.021 132.686 116.423C140.37 113.143 145.333 105.626 145.331 97.2718C145.331 97.1921 145.329 97.113 145.326 97.0342Z" fill="#0B768C"/>
<path d="M124.493 150C127.729 150 130.353 147.377 130.353 144.141C130.353 140.905 127.729 138.281 124.493 138.281C121.257 138.281 118.634 140.905 118.634 144.141C118.634 147.377 121.257 150 124.493 150Z" fill="#0B768C"/>
<path d="M37.4817 107.227C40.7177 107.227 43.3411 104.603 43.3411 101.367C43.3411 98.1311 40.7177 95.5078 37.4817 95.5078C34.2456 95.5078 31.6223 98.1311 31.6223 101.367C31.6223 104.603 34.2456 107.227 37.4817 107.227Z" fill="#0B768C"/>
</svg>
