<svg width="18" height="20" viewBox="0 0 18 20" fill="none" xmlns="http://www.w3.org/2000/svg">
<path d="M9.39002 3.70349L9.38964 3.70346C9.21303 3.69016 8.25758 3.67707 7.26845 3.67707H5.4652H5.4152V3.72707V8.32025V12.9134V12.9634H5.4652H6.38927H7.31334H7.36334V12.9134V11.9974V11.1283L8.52293 11.1183L9.39002 3.70349ZM9.39002 3.70349C10.6058 3.80443 11.5966 4.37105 12.2654 5.35246L12.2654 5.35251M9.39002 3.70349L12.2654 5.35251M12.2654 5.35251C13.0122 6.45137 13.1086 7.88278 12.5169 9.05925L12.5169 9.05934M12.2654 5.35251L12.5169 9.05934M12.5169 9.05934C11.9979 10.0859 11.0826 10.7987 9.93847 11.0619M12.5169 9.05934L9.93847 11.0619M9.93847 11.0619C9.76258 11.1028 9.54645 11.1104 8.52298 11.1183L9.93847 11.0619ZM1.75141 4.64467L1.75138 4.64474C1.34247 5.58024 1.17999 6.38705 1.17737 7.48047L1.17737 7.48048C1.17474 8.50865 1.2793 9.09583 1.63622 10.0481C2.28323 11.7685 3.53131 13.8111 5.13165 15.7689C6.00446 16.8358 6.66877 17.5723 7.79791 18.7262L8.3616 19.2989L8.99657 18.6578L8.9966 18.6577C10.6503 16.9902 11.8311 15.5882 12.9645 13.961C14.2013 12.1837 15.1632 10.24 15.4252 8.99239L15.4253 8.9923C15.6245 8.0514 15.6271 6.95086 15.4358 6.04979C15.0477 4.23277 13.9751 2.62186 12.4599 1.5846L12.4598 1.58458C11.6311 1.01623 10.5135 0.56275 9.62954 0.432724C9.06987 0.351748 8.26036 0.310057 7.79199 0.341259C7.48849 0.362066 7.27433 0.393171 6.90118 0.471544C4.59339 0.96171 2.67947 2.51279 1.75141 4.64467ZM9.44721 17.4387C9.43742 17.4484 9.42477 17.4595 9.41161 17.4697C9.40109 17.4782 9.39191 17.4853 9.38469 17.4903C9.38133 17.4926 9.37652 17.4958 9.37127 17.4983C9.36896 17.4994 9.3636 17.5019 9.35659 17.5031C9.3521 17.504 9.32976 17.5075 9.31136 17.4892C9.29284 17.4708 9.29642 17.4483 9.29726 17.4437C9.29856 17.4366 9.30106 17.4312 9.30218 17.4289C9.30473 17.4237 9.30794 17.4189 9.31027 17.4155C9.31534 17.4083 9.32264 17.399 9.33133 17.3883C9.34862 17.3672 9.36702 17.3475 9.38438 17.3368C9.38916 17.3338 9.39599 17.3302 9.40434 17.328C9.41261 17.3258 9.42632 17.3241 9.44116 17.3304C9.47433 17.3444 9.47549 17.3783 9.47549 17.3859C9.47549 17.3999 9.46965 17.4103 9.46822 17.4129L9.46814 17.413C9.46577 17.4172 9.46314 17.4208 9.46114 17.4234C9.45702 17.4286 9.45205 17.4339 9.44721 17.4387Z" fill="#077187" stroke="white" stroke-width="0.1"/>
<path d="M7.31332 7.41731V9.27032L8.37732 9.2572C9.57333 9.24408 9.58389 9.24408 9.9984 9.04198C10.434 8.82938 10.7614 8.4383 10.9225 7.93962C11.0175 7.64565 11.0228 7.18896 10.9304 6.91599C10.6743 6.14172 10.1066 5.67977 9.30667 5.59053C9.1773 5.57741 8.67302 5.56429 8.19251 5.56429H7.31332V7.41731Z" fill="#077187"/>
</svg>
