<svg width="372" height="300" viewBox="0 0 372 300" fill="none" xmlns="http://www.w3.org/2000/svg">
<path d="M59.488 239.4V259H57.78L45.18 243.096V259H43.108V239.4H44.816L57.444 255.304V239.4H59.488ZM71.4854 259.14C70.0667 259.14 68.788 258.823 67.6494 258.188C66.5107 257.535 65.6147 256.639 64.9614 255.5C64.308 254.361 63.9814 253.073 63.9814 251.636C63.9814 250.199 64.308 248.911 64.9614 247.772C65.6147 246.633 66.5107 245.747 67.6494 245.112C68.788 244.477 70.0667 244.16 71.4854 244.16C72.904 244.16 74.1827 244.477 75.3214 245.112C76.46 245.747 77.3467 246.633 77.9814 247.772C78.6347 248.911 78.9614 250.199 78.9614 251.636C78.9614 253.073 78.6347 254.361 77.9814 255.5C77.3467 256.639 76.46 257.535 75.3214 258.188C74.1827 258.823 72.904 259.14 71.4854 259.14ZM71.4854 257.376C72.5307 257.376 73.464 257.143 74.2854 256.676C75.1254 256.191 75.7787 255.509 76.2454 254.632C76.712 253.755 76.9454 252.756 76.9454 251.636C76.9454 250.516 76.712 249.517 76.2454 248.64C75.7787 247.763 75.1254 247.091 74.2854 246.624C73.464 246.139 72.5307 245.896 71.4854 245.896C70.44 245.896 69.4974 246.139 68.6574 246.624C67.836 247.091 67.1827 247.763 66.6974 248.64C66.2307 249.517 65.9974 250.516 65.9974 251.636C65.9974 252.756 66.2307 253.755 66.6974 254.632C67.1827 255.509 67.836 256.191 68.6574 256.676C69.4974 257.143 70.44 257.376 71.4854 257.376ZM98.1042 258.104C97.7308 258.44 97.2642 258.701 96.7042 258.888C96.1628 259.056 95.5935 259.14 94.9962 259.14C93.6148 259.14 92.5508 258.767 91.8042 258.02C91.0575 257.273 90.6842 256.219 90.6842 254.856V245.952H88.0522V244.272H90.6842V241.052H92.6722V244.272H97.1522V245.952H92.6722V254.744C92.6722 255.621 92.8868 256.293 93.3162 256.76C93.7642 257.208 94.3988 257.432 95.2202 257.432C95.6308 257.432 96.0228 257.367 96.3962 257.236C96.7882 257.105 97.1242 256.919 97.4042 256.676L98.1042 258.104ZM101.723 244.272H103.711V259H101.723V244.272ZM102.731 241.052C102.321 241.052 101.975 240.912 101.695 240.632C101.415 240.352 101.275 240.016 101.275 239.624C101.275 239.251 101.415 238.924 101.695 238.644C101.975 238.364 102.321 238.224 102.731 238.224C103.142 238.224 103.487 238.364 103.767 238.644C104.047 238.905 104.187 239.223 104.187 239.596C104.187 240.007 104.047 240.352 103.767 240.632C103.487 240.912 103.142 241.052 102.731 241.052ZM122.067 252.252H109.747C109.859 253.783 110.447 255.024 111.511 255.976C112.575 256.909 113.919 257.376 115.543 257.376C116.457 257.376 117.297 257.217 118.063 256.9C118.828 256.564 119.491 256.079 120.051 255.444L121.171 256.732C120.517 257.516 119.696 258.113 118.707 258.524C117.736 258.935 116.663 259.14 115.487 259.14C113.975 259.14 112.631 258.823 111.455 258.188C110.297 257.535 109.392 256.639 108.739 255.5C108.085 254.361 107.759 253.073 107.759 251.636C107.759 250.199 108.067 248.911 108.683 247.772C109.317 246.633 110.176 245.747 111.259 245.112C112.36 244.477 113.592 244.16 114.955 244.16C116.317 244.16 117.54 244.477 118.623 245.112C119.705 245.747 120.555 246.633 121.171 247.772C121.787 248.892 122.095 250.18 122.095 251.636L122.067 252.252ZM114.955 245.868C113.536 245.868 112.341 246.325 111.371 247.24C110.419 248.136 109.877 249.312 109.747 250.768H120.191C120.06 249.312 119.509 248.136 118.539 247.24C117.587 246.325 116.392 245.868 114.955 245.868ZM133.645 244.16C135.493 244.16 136.958 244.701 138.041 245.784C139.142 246.848 139.693 248.407 139.693 250.46V259H137.705V250.656C137.705 249.125 137.322 247.959 136.557 247.156C135.792 246.353 134.7 245.952 133.281 245.952C131.694 245.952 130.434 246.428 129.501 247.38C128.586 248.313 128.129 249.611 128.129 251.272V259H126.141V244.272H128.045V246.988C128.586 246.092 129.333 245.401 130.285 244.916C131.256 244.412 132.376 244.16 133.645 244.16ZM157.969 252.252H145.649C145.761 253.783 146.349 255.024 147.413 255.976C148.477 256.909 149.821 257.376 151.445 257.376C152.36 257.376 153.2 257.217 153.965 256.9C154.73 256.564 155.393 256.079 155.953 255.444L157.073 256.732C156.42 257.516 155.598 258.113 154.609 258.524C153.638 258.935 152.565 259.14 151.389 259.14C149.877 259.14 148.533 258.823 147.357 258.188C146.2 257.535 145.294 256.639 144.641 255.5C143.988 254.361 143.661 253.073 143.661 251.636C143.661 250.199 143.969 248.911 144.585 247.772C145.22 246.633 146.078 245.747 147.161 245.112C148.262 244.477 149.494 244.16 150.857 244.16C152.22 244.16 153.442 244.477 154.525 245.112C155.608 245.747 156.457 246.633 157.073 247.772C157.689 248.892 157.997 250.18 157.997 251.636L157.969 252.252ZM150.857 245.868C149.438 245.868 148.244 246.325 147.273 247.24C146.321 248.136 145.78 249.312 145.649 250.768H156.093C155.962 249.312 155.412 248.136 154.441 247.24C153.489 246.325 152.294 245.868 150.857 245.868ZM165.991 259.14C164.797 259.14 163.649 258.972 162.547 258.636C161.465 258.281 160.615 257.843 159.999 257.32L160.895 255.752C161.511 256.237 162.286 256.639 163.219 256.956C164.153 257.255 165.123 257.404 166.131 257.404C167.475 257.404 168.465 257.199 169.099 256.788C169.753 256.359 170.079 255.761 170.079 254.996C170.079 254.455 169.902 254.035 169.547 253.736C169.193 253.419 168.745 253.185 168.203 253.036C167.662 252.868 166.943 252.709 166.047 252.56C164.853 252.336 163.891 252.112 163.163 251.888C162.435 251.645 161.81 251.244 161.287 250.684C160.783 250.124 160.531 249.349 160.531 248.36C160.531 247.128 161.045 246.12 162.071 245.336C163.098 244.552 164.526 244.16 166.355 244.16C167.307 244.16 168.259 244.291 169.211 244.552C170.163 244.795 170.947 245.121 171.563 245.532L170.695 247.128C169.482 246.288 168.035 245.868 166.355 245.868C165.086 245.868 164.125 246.092 163.471 246.54C162.837 246.988 162.519 247.576 162.519 248.304C162.519 248.864 162.697 249.312 163.051 249.648C163.425 249.984 163.882 250.236 164.423 250.404C164.965 250.553 165.711 250.712 166.663 250.88C167.839 251.104 168.782 251.328 169.491 251.552C170.201 251.776 170.807 252.159 171.311 252.7C171.815 253.241 172.067 253.988 172.067 254.94C172.067 256.228 171.526 257.255 170.443 258.02C169.379 258.767 167.895 259.14 165.991 259.14ZM203.847 239.4V259H201.859V243.32L194.159 256.508H193.179L185.479 243.404V259H183.491V239.4H185.199L193.711 253.932L202.139 239.4H203.847ZM222.637 252.252H210.317C210.429 253.783 211.017 255.024 212.081 255.976C213.145 256.909 214.489 257.376 216.113 257.376C217.028 257.376 217.868 257.217 218.633 256.9C219.398 256.564 220.061 256.079 220.621 255.444L221.741 256.732C221.088 257.516 220.266 258.113 219.277 258.524C218.306 258.935 217.233 259.14 216.057 259.14C214.545 259.14 213.201 258.823 212.025 258.188C210.868 257.535 209.962 256.639 209.309 255.5C208.656 254.361 208.329 253.073 208.329 251.636C208.329 250.199 208.637 248.911 209.253 247.772C209.888 246.633 210.746 245.747 211.829 245.112C212.93 244.477 214.162 244.16 215.525 244.16C216.888 244.16 218.11 244.477 219.193 245.112C220.276 245.747 221.125 246.633 221.741 247.772C222.357 248.892 222.665 250.18 222.665 251.636L222.637 252.252ZM215.525 245.868C214.106 245.868 212.912 246.325 211.941 247.24C210.989 248.136 210.448 249.312 210.317 250.768H220.761C220.63 249.312 220.08 248.136 219.109 247.24C218.157 246.325 216.962 245.868 215.525 245.868ZM234.467 258.104C234.094 258.44 233.627 258.701 233.067 258.888C232.526 259.056 231.957 259.14 231.359 259.14C229.978 259.14 228.914 258.767 228.167 258.02C227.421 257.273 227.047 256.219 227.047 254.856V245.952H224.415V244.272H227.047V241.052H229.035V244.272H233.515V245.952H229.035V254.744C229.035 255.621 229.25 256.293 229.679 256.76C230.127 257.208 230.762 257.432 231.583 257.432C231.994 257.432 232.386 257.367 232.759 257.236C233.151 257.105 233.487 256.919 233.767 256.676L234.467 258.104ZM243.587 259.14C242.168 259.14 240.89 258.823 239.751 258.188C238.612 257.535 237.716 256.639 237.063 255.5C236.41 254.361 236.083 253.073 236.083 251.636C236.083 250.199 236.41 248.911 237.063 247.772C237.716 246.633 238.612 245.747 239.751 245.112C240.89 244.477 242.168 244.16 243.587 244.16C245.006 244.16 246.284 244.477 247.423 245.112C248.562 245.747 249.448 246.633 250.083 247.772C250.736 248.911 251.063 250.199 251.063 251.636C251.063 253.073 250.736 254.361 250.083 255.5C249.448 256.639 248.562 257.535 247.423 258.188C246.284 258.823 245.006 259.14 243.587 259.14ZM243.587 257.376C244.632 257.376 245.566 257.143 246.387 256.676C247.227 256.191 247.88 255.509 248.347 254.632C248.814 253.755 249.047 252.756 249.047 251.636C249.047 250.516 248.814 249.517 248.347 248.64C247.88 247.763 247.227 247.091 246.387 246.624C245.566 246.139 244.632 245.896 243.587 245.896C242.542 245.896 241.599 246.139 240.759 246.624C239.938 247.091 239.284 247.763 238.799 248.64C238.332 249.517 238.099 250.516 238.099 251.636C238.099 252.756 238.332 253.755 238.799 254.632C239.284 255.509 239.938 256.191 240.759 256.676C241.599 257.143 242.542 257.376 243.587 257.376ZM268.562 238.224V259H266.658V256.088C266.06 257.077 265.267 257.833 264.278 258.356C263.307 258.879 262.206 259.14 260.974 259.14C259.592 259.14 258.342 258.823 257.222 258.188C256.102 257.553 255.224 256.667 254.59 255.528C253.955 254.389 253.638 253.092 253.638 251.636C253.638 250.18 253.955 248.883 254.59 247.744C255.224 246.605 256.102 245.728 257.222 245.112C258.342 244.477 259.592 244.16 260.974 244.16C262.168 244.16 263.242 244.412 264.194 244.916C265.164 245.401 265.958 246.12 266.574 247.072V238.224H268.562ZM261.142 257.376C262.168 257.376 263.092 257.143 263.914 256.676C264.754 256.191 265.407 255.509 265.874 254.632C266.359 253.755 266.602 252.756 266.602 251.636C266.602 250.516 266.359 249.517 265.874 248.64C265.407 247.763 264.754 247.091 263.914 246.624C263.092 246.139 262.168 245.896 261.142 245.896C260.096 245.896 259.154 246.139 258.314 246.624C257.492 247.091 256.839 247.763 256.354 248.64C255.887 249.517 255.654 250.516 255.654 251.636C255.654 252.756 255.887 253.755 256.354 254.632C256.839 255.509 257.492 256.191 258.314 256.676C259.154 257.143 260.096 257.376 261.142 257.376ZM280.118 259.14C278.7 259.14 277.421 258.823 276.282 258.188C275.144 257.535 274.248 256.639 273.594 255.5C272.941 254.361 272.614 253.073 272.614 251.636C272.614 250.199 272.941 248.911 273.594 247.772C274.248 246.633 275.144 245.747 276.282 245.112C277.421 244.477 278.7 244.16 280.118 244.16C281.537 244.16 282.816 244.477 283.954 245.112C285.093 245.747 285.98 246.633 286.614 247.772C287.268 248.911 287.594 250.199 287.594 251.636C287.594 253.073 287.268 254.361 286.614 255.5C285.98 256.639 285.093 257.535 283.954 258.188C282.816 258.823 281.537 259.14 280.118 259.14ZM280.118 257.376C281.164 257.376 282.097 257.143 282.918 256.676C283.758 256.191 284.412 255.509 284.878 254.632C285.345 253.755 285.578 252.756 285.578 251.636C285.578 250.516 285.345 249.517 284.878 248.64C284.412 247.763 283.758 247.091 282.918 246.624C282.097 246.139 281.164 245.896 280.118 245.896C279.073 245.896 278.13 246.139 277.29 246.624C276.469 247.091 275.816 247.763 275.33 248.64C274.864 249.517 274.63 250.516 274.63 251.636C274.63 252.756 274.864 253.755 275.33 254.632C275.816 255.509 276.469 256.191 277.29 256.676C278.13 257.143 279.073 257.376 280.118 257.376ZM312.421 238.224V259H310.517V256.088C309.92 257.077 309.126 257.833 308.137 258.356C307.166 258.879 306.065 259.14 304.833 259.14C303.452 259.14 302.201 258.823 301.081 258.188C299.961 257.553 299.084 256.667 298.449 255.528C297.814 254.389 297.497 253.092 297.497 251.636C297.497 250.18 297.814 248.883 298.449 247.744C299.084 246.605 299.961 245.728 301.081 245.112C302.201 244.477 303.452 244.16 304.833 244.16C306.028 244.16 307.101 244.412 308.053 244.916C309.024 245.401 309.817 246.12 310.433 247.072V238.224H312.421ZM305.001 257.376C306.028 257.376 306.952 257.143 307.773 256.676C308.613 256.191 309.266 255.509 309.733 254.632C310.218 253.755 310.461 252.756 310.461 251.636C310.461 250.516 310.218 249.517 309.733 248.64C309.266 247.763 308.613 247.091 307.773 246.624C306.952 246.139 306.028 245.896 305.001 245.896C303.956 245.896 303.013 246.139 302.173 246.624C301.352 247.091 300.698 247.763 300.213 248.64C299.746 249.517 299.513 250.516 299.513 251.636C299.513 252.756 299.746 253.755 300.213 254.632C300.698 255.509 301.352 256.191 302.173 256.676C303.013 257.143 303.956 257.376 305.001 257.376ZM330.782 252.252H318.462C318.574 253.783 319.162 255.024 320.226 255.976C321.29 256.909 322.634 257.376 324.258 257.376C325.172 257.376 326.012 257.217 326.778 256.9C327.543 256.564 328.206 256.079 328.766 255.444L329.886 256.732C329.232 257.516 328.411 258.113 327.422 258.524C326.451 258.935 325.378 259.14 324.202 259.14C322.69 259.14 321.346 258.823 320.17 258.188C319.012 257.535 318.107 256.639 317.454 255.5C316.8 254.361 316.474 253.073 316.474 251.636C316.474 250.199 316.782 248.911 317.398 247.772C318.032 246.633 318.891 245.747 319.974 245.112C321.075 244.477 322.307 244.16 323.67 244.16C325.032 244.16 326.255 244.477 327.338 245.112C328.42 245.747 329.27 246.633 329.886 247.772C330.502 248.892 330.81 250.18 330.81 251.636L330.782 252.252ZM323.67 245.868C322.251 245.868 321.056 246.325 320.086 247.24C319.134 248.136 318.592 249.312 318.462 250.768H328.906C328.775 249.312 328.224 248.136 327.254 247.24C326.302 246.325 325.107 245.868 323.67 245.868ZM77.6784 273.4C80.1797 273.4 82.1397 273.997 83.5584 275.192C84.9771 276.387 85.6864 278.029 85.6864 280.12C85.6864 282.211 84.9771 283.853 83.5584 285.048C82.1397 286.224 80.1797 286.812 77.6784 286.812H72.4144V293H70.3424V273.4H77.6784ZM77.6224 284.992C79.5637 284.992 81.0477 284.572 82.0744 283.732C83.1011 282.873 83.6144 281.669 83.6144 280.12C83.6144 278.533 83.1011 277.32 82.0744 276.48C81.0477 275.621 79.5637 275.192 77.6224 275.192H72.4144V284.992H77.6224ZM94.7619 278.16C96.6846 278.16 98.1592 278.645 99.1859 279.616C100.213 280.568 100.726 281.987 100.726 283.872V293H98.8219V290.704C98.3739 291.469 97.7112 292.067 96.8339 292.496C95.9752 292.925 94.9486 293.14 93.7539 293.14C92.1112 293.14 90.8046 292.748 89.8339 291.964C88.8632 291.18 88.3779 290.144 88.3779 288.856C88.3779 287.605 88.8259 286.597 89.7219 285.832C90.6366 285.067 92.0832 284.684 94.0619 284.684H98.7379V283.788C98.7379 282.519 98.3832 281.557 97.6739 280.904C96.9646 280.232 95.9286 279.896 94.5659 279.896C93.6326 279.896 92.7366 280.055 91.8779 280.372C91.0192 280.671 90.2819 281.091 89.6659 281.632L88.7699 280.148C89.5166 279.513 90.4126 279.028 91.4579 278.692C92.5032 278.337 93.6046 278.16 94.7619 278.16ZM94.0619 291.572C95.1819 291.572 96.1432 291.32 96.9459 290.816C97.7486 290.293 98.3459 289.547 98.7379 288.576V286.168H94.1179C91.5979 286.168 90.3379 287.045 90.3379 288.8C90.3379 289.659 90.6646 290.34 91.3179 290.844C91.9712 291.329 92.8859 291.572 94.0619 291.572ZM119.816 278.272V291.208C119.816 293.709 119.2 295.557 117.968 296.752C116.755 297.965 114.916 298.572 112.452 298.572C111.09 298.572 109.792 298.367 108.56 297.956C107.347 297.564 106.358 297.013 105.592 296.304L106.6 294.792C107.31 295.427 108.168 295.921 109.176 296.276C110.203 296.631 111.276 296.808 112.396 296.808C114.263 296.808 115.635 296.369 116.512 295.492C117.39 294.633 117.828 293.289 117.828 291.46V289.584C117.212 290.517 116.4 291.227 115.392 291.712C114.403 292.197 113.302 292.44 112.088 292.44C110.707 292.44 109.447 292.141 108.308 291.544C107.188 290.928 106.302 290.079 105.648 288.996C105.014 287.895 104.696 286.653 104.696 285.272C104.696 283.891 105.014 282.659 105.648 281.576C106.302 280.493 107.188 279.653 108.308 279.056C109.428 278.459 110.688 278.16 112.088 278.16C113.339 278.16 114.468 278.412 115.476 278.916C116.484 279.42 117.296 280.148 117.912 281.1V278.272H119.816ZM112.284 290.676C113.348 290.676 114.31 290.452 115.168 290.004C116.027 289.537 116.69 288.893 117.156 288.072C117.642 287.251 117.884 286.317 117.884 285.272C117.884 284.227 117.642 283.303 117.156 282.5C116.69 281.679 116.027 281.044 115.168 280.596C114.328 280.129 113.367 279.896 112.284 279.896C111.22 279.896 110.259 280.12 109.4 280.568C108.56 281.016 107.898 281.651 107.412 282.472C106.946 283.293 106.712 284.227 106.712 285.272C106.712 286.317 106.946 287.251 107.412 288.072C107.898 288.893 108.56 289.537 109.4 290.004C110.259 290.452 111.22 290.676 112.284 290.676ZM131.396 293.14C129.977 293.14 128.698 292.823 127.56 292.188C126.421 291.535 125.525 290.639 124.872 289.5C124.218 288.361 123.892 287.073 123.892 285.636C123.892 284.199 124.218 282.911 124.872 281.772C125.525 280.633 126.421 279.747 127.56 279.112C128.698 278.477 129.977 278.16 131.396 278.16C132.814 278.16 134.093 278.477 135.232 279.112C136.37 279.747 137.257 280.633 137.892 281.772C138.545 282.911 138.872 284.199 138.872 285.636C138.872 287.073 138.545 288.361 137.892 289.5C137.257 290.639 136.37 291.535 135.232 292.188C134.093 292.823 132.814 293.14 131.396 293.14ZM131.396 291.376C132.441 291.376 133.374 291.143 134.196 290.676C135.036 290.191 135.689 289.509 136.156 288.632C136.622 287.755 136.856 286.756 136.856 285.636C136.856 284.516 136.622 283.517 136.156 282.64C135.689 281.763 135.036 281.091 134.196 280.624C133.374 280.139 132.441 279.896 131.396 279.896C130.35 279.896 129.408 280.139 128.568 280.624C127.746 281.091 127.093 281.763 126.608 282.64C126.141 283.517 125.908 284.516 125.908 285.636C125.908 286.756 126.141 287.755 126.608 288.632C127.093 289.509 127.746 290.191 128.568 290.676C129.408 291.143 130.35 291.376 131.396 291.376ZM152.162 281.156C152.629 280.167 153.32 279.42 154.234 278.916C155.168 278.412 156.316 278.16 157.678 278.16V280.092L157.202 280.064C155.653 280.064 154.44 280.54 153.562 281.492C152.685 282.444 152.246 283.779 152.246 285.496V293H150.258V278.272H152.162V281.156ZM173.965 286.252H161.645C161.757 287.783 162.345 289.024 163.409 289.976C164.473 290.909 165.817 291.376 167.441 291.376C168.356 291.376 169.196 291.217 169.961 290.9C170.726 290.564 171.389 290.079 171.949 289.444L173.069 290.732C172.416 291.516 171.594 292.113 170.605 292.524C169.634 292.935 168.561 293.14 167.385 293.14C165.873 293.14 164.529 292.823 163.353 292.188C162.196 291.535 161.29 290.639 160.637 289.5C159.984 288.361 159.657 287.073 159.657 285.636C159.657 284.199 159.965 282.911 160.581 281.772C161.216 280.633 162.074 279.747 163.157 279.112C164.258 278.477 165.49 278.16 166.853 278.16C168.216 278.16 169.438 278.477 170.521 279.112C171.604 279.747 172.453 280.633 173.069 281.772C173.685 282.892 173.993 284.18 173.993 285.636L173.965 286.252ZM166.853 279.868C165.434 279.868 164.24 280.325 163.269 281.24C162.317 282.136 161.776 283.312 161.645 284.768H172.089C171.958 283.312 171.408 282.136 170.437 281.24C169.485 280.325 168.29 279.868 166.853 279.868ZM191.676 278.272V291.208C191.676 293.709 191.06 295.557 189.828 296.752C188.614 297.965 186.776 298.572 184.312 298.572C182.949 298.572 181.652 298.367 180.42 297.956C179.206 297.564 178.217 297.013 177.452 296.304L178.46 294.792C179.169 295.427 180.028 295.921 181.036 296.276C182.062 296.631 183.136 296.808 184.256 296.808C186.122 296.808 187.494 296.369 188.372 295.492C189.249 294.633 189.688 293.289 189.688 291.46V289.584C189.072 290.517 188.26 291.227 187.252 291.712C186.262 292.197 185.161 292.44 183.948 292.44C182.566 292.44 181.306 292.141 180.168 291.544C179.048 290.928 178.161 290.079 177.508 288.996C176.873 287.895 176.556 286.653 176.556 285.272C176.556 283.891 176.873 282.659 177.508 281.576C178.161 280.493 179.048 279.653 180.168 279.056C181.288 278.459 182.548 278.16 183.948 278.16C185.198 278.16 186.328 278.412 187.336 278.916C188.344 279.42 189.156 280.148 189.772 281.1V278.272H191.676ZM184.144 290.676C185.208 290.676 186.169 290.452 187.028 290.004C187.886 289.537 188.549 288.893 189.016 288.072C189.501 287.251 189.744 286.317 189.744 285.272C189.744 284.227 189.501 283.303 189.016 282.5C188.549 281.679 187.886 281.044 187.028 280.596C186.188 280.129 185.226 279.896 184.144 279.896C183.08 279.896 182.118 280.12 181.26 280.568C180.42 281.016 179.757 281.651 179.272 282.472C178.805 283.293 178.572 284.227 178.572 285.272C178.572 286.317 178.805 287.251 179.272 288.072C179.757 288.893 180.42 289.537 181.26 290.004C182.118 290.452 183.08 290.676 184.144 290.676ZM197.235 278.272H199.223V293H197.235V278.272ZM198.243 275.052C197.832 275.052 197.487 274.912 197.207 274.632C196.927 274.352 196.787 274.016 196.787 273.624C196.787 273.251 196.927 272.924 197.207 272.644C197.487 272.364 197.832 272.224 198.243 272.224C198.654 272.224 198.999 272.364 199.279 272.644C199.559 272.905 199.699 273.223 199.699 273.596C199.699 274.007 199.559 274.352 199.279 274.632C198.999 274.912 198.654 275.052 198.243 275.052ZM208.702 293.14C207.508 293.14 206.36 292.972 205.258 292.636C204.176 292.281 203.326 291.843 202.71 291.32L203.606 289.752C204.222 290.237 204.997 290.639 205.93 290.956C206.864 291.255 207.834 291.404 208.842 291.404C210.186 291.404 211.176 291.199 211.81 290.788C212.464 290.359 212.79 289.761 212.79 288.996C212.79 288.455 212.613 288.035 212.258 287.736C211.904 287.419 211.456 287.185 210.914 287.036C210.373 286.868 209.654 286.709 208.758 286.56C207.564 286.336 206.602 286.112 205.874 285.888C205.146 285.645 204.521 285.244 203.998 284.684C203.494 284.124 203.242 283.349 203.242 282.36C203.242 281.128 203.756 280.12 204.782 279.336C205.809 278.552 207.237 278.16 209.066 278.16C210.018 278.16 210.97 278.291 211.922 278.552C212.874 278.795 213.658 279.121 214.274 279.532L213.406 281.128C212.193 280.288 210.746 279.868 209.066 279.868C207.797 279.868 206.836 280.092 206.182 280.54C205.548 280.988 205.23 281.576 205.23 282.304C205.23 282.864 205.408 283.312 205.762 283.648C206.136 283.984 206.593 284.236 207.134 284.404C207.676 284.553 208.422 284.712 209.374 284.88C210.55 285.104 211.493 285.328 212.202 285.552C212.912 285.776 213.518 286.159 214.022 286.7C214.526 287.241 214.778 287.988 214.778 288.94C214.778 290.228 214.237 291.255 213.154 292.02C212.09 292.767 210.606 293.14 208.702 293.14ZM226.21 292.104C225.836 292.44 225.37 292.701 224.81 292.888C224.268 293.056 223.699 293.14 223.102 293.14C221.72 293.14 220.656 292.767 219.91 292.02C219.163 291.273 218.79 290.219 218.79 288.856V279.952H216.158V278.272H218.79V275.052H220.778V278.272H225.258V279.952H220.778V288.744C220.778 289.621 220.992 290.293 221.422 290.76C221.87 291.208 222.504 291.432 223.326 291.432C223.736 291.432 224.128 291.367 224.502 291.236C224.894 291.105 225.23 290.919 225.51 290.676L226.21 292.104ZM231.733 281.156C232.199 280.167 232.89 279.42 233.805 278.916C234.738 278.412 235.886 278.16 237.249 278.16V280.092L236.773 280.064C235.223 280.064 234.01 280.54 233.133 281.492C232.255 282.444 231.817 283.779 231.817 285.496V293H229.829V278.272H231.733V281.156ZM245.973 278.16C247.895 278.16 249.37 278.645 250.397 279.616C251.423 280.568 251.937 281.987 251.937 283.872V293H250.033V290.704C249.585 291.469 248.922 292.067 248.045 292.496C247.186 292.925 246.159 293.14 244.965 293.14C243.322 293.14 242.015 292.748 241.045 291.964C240.074 291.18 239.589 290.144 239.589 288.856C239.589 287.605 240.037 286.597 240.933 285.832C241.847 285.067 243.294 284.684 245.273 284.684H249.949V283.788C249.949 282.519 249.594 281.557 248.885 280.904C248.175 280.232 247.139 279.896 245.777 279.896C244.843 279.896 243.947 280.055 243.089 280.372C242.23 280.671 241.493 281.091 240.877 281.632L239.981 280.148C240.727 279.513 241.623 279.028 242.669 278.692C243.714 278.337 244.815 278.16 245.973 278.16ZM245.273 291.572C246.393 291.572 247.354 291.32 248.157 290.816C248.959 290.293 249.557 289.547 249.949 288.576V286.168H245.329C242.809 286.168 241.549 287.045 241.549 288.8C241.549 289.659 241.875 290.34 242.529 290.844C243.182 291.329 244.097 291.572 245.273 291.572ZM270.831 272.224V293H268.927V290.088C268.33 291.077 267.536 291.833 266.547 292.356C265.576 292.879 264.475 293.14 263.243 293.14C261.862 293.14 260.611 292.823 259.491 292.188C258.371 291.553 257.494 290.667 256.859 289.528C256.224 288.389 255.907 287.092 255.907 285.636C255.907 284.18 256.224 282.883 256.859 281.744C257.494 280.605 258.371 279.728 259.491 279.112C260.611 278.477 261.862 278.16 263.243 278.16C264.438 278.16 265.511 278.412 266.463 278.916C267.434 279.401 268.227 280.12 268.843 281.072V272.224H270.831ZM263.411 291.376C264.438 291.376 265.362 291.143 266.183 290.676C267.023 290.191 267.676 289.509 268.143 288.632C268.628 287.755 268.871 286.756 268.871 285.636C268.871 284.516 268.628 283.517 268.143 282.64C267.676 281.763 267.023 281.091 266.183 280.624C265.362 280.139 264.438 279.896 263.411 279.896C262.366 279.896 261.423 280.139 260.583 280.624C259.762 281.091 259.108 281.763 258.623 282.64C258.156 283.517 257.923 284.516 257.923 285.636C257.923 286.756 258.156 287.755 258.623 288.632C259.108 289.509 259.762 290.191 260.583 290.676C261.423 291.143 262.366 291.376 263.411 291.376ZM282.388 293.14C280.969 293.14 279.69 292.823 278.552 292.188C277.413 291.535 276.517 290.639 275.864 289.5C275.21 288.361 274.884 287.073 274.884 285.636C274.884 284.199 275.21 282.911 275.864 281.772C276.517 280.633 277.413 279.747 278.552 279.112C279.69 278.477 280.969 278.16 282.388 278.16C283.806 278.16 285.085 278.477 286.224 279.112C287.362 279.747 288.249 280.633 288.884 281.772C289.537 282.911 289.864 284.199 289.864 285.636C289.864 287.073 289.537 288.361 288.884 289.5C288.249 290.639 287.362 291.535 286.224 292.188C285.085 292.823 283.806 293.14 282.388 293.14ZM282.388 291.376C283.433 291.376 284.366 291.143 285.188 290.676C286.028 290.191 286.681 289.509 287.148 288.632C287.614 287.755 287.848 286.756 287.848 285.636C287.848 284.516 287.614 283.517 287.148 282.64C286.681 281.763 286.028 281.091 285.188 280.624C284.366 280.139 283.433 279.896 282.388 279.896C281.342 279.896 280.4 280.139 279.56 280.624C278.738 281.091 278.085 281.763 277.6 282.64C277.133 283.517 276.9 284.516 276.9 285.636C276.9 286.756 277.133 287.755 277.6 288.632C278.085 289.509 278.738 290.191 279.56 290.676C280.4 291.143 281.342 291.376 282.388 291.376ZM297.87 293.14C296.676 293.14 295.528 292.972 294.426 292.636C293.344 292.281 292.494 291.843 291.878 291.32L292.774 289.752C293.39 290.237 294.165 290.639 295.098 290.956C296.032 291.255 297.002 291.404 298.01 291.404C299.354 291.404 300.344 291.199 300.978 290.788C301.632 290.359 301.958 289.761 301.958 288.996C301.958 288.455 301.781 288.035 301.426 287.736C301.072 287.419 300.624 287.185 300.082 287.036C299.541 286.868 298.822 286.709 297.926 286.56C296.732 286.336 295.77 286.112 295.042 285.888C294.314 285.645 293.689 285.244 293.166 284.684C292.662 284.124 292.41 283.349 292.41 282.36C292.41 281.128 292.924 280.12 293.95 279.336C294.977 278.552 296.405 278.16 298.234 278.16C299.186 278.16 300.138 278.291 301.09 278.552C302.042 278.795 302.826 279.121 303.442 279.532L302.574 281.128C301.361 280.288 299.914 279.868 298.234 279.868C296.965 279.868 296.004 280.092 295.35 280.54C294.716 280.988 294.398 281.576 294.398 282.304C294.398 282.864 294.576 283.312 294.93 283.648C295.304 283.984 295.761 284.236 296.302 284.404C296.844 284.553 297.59 284.712 298.542 284.88C299.718 285.104 300.661 285.328 301.37 285.552C302.08 285.776 302.686 286.159 303.19 286.7C303.694 287.241 303.946 287.988 303.946 288.94C303.946 290.228 303.405 291.255 302.322 292.02C301.258 292.767 299.774 293.14 297.87 293.14Z" fill="#0B768C"/>
<path d="M164.794 59.074C164.794 56.2313 165.423 53.8807 166.68 52.022C167.992 50.1633 169.878 48.1133 172.338 45.872C174.142 44.232 175.454 42.8653 176.274 41.772C177.149 40.624 177.586 39.3393 177.586 37.918C177.586 35.8953 176.766 34.31 175.126 33.162C173.541 31.9593 171.409 31.358 168.73 31.358C166.161 31.358 163.865 31.9047 161.842 32.998C159.874 34.0367 158.207 35.5127 156.84 37.426L146.918 31.604C149.214 28.1053 152.303 25.3993 156.184 23.486C160.12 21.5727 164.767 20.616 170.124 20.616C176.411 20.616 181.44 21.9553 185.212 24.634C189.039 27.3127 190.952 31.03 190.952 35.786C190.952 38.0273 190.569 39.9953 189.804 41.69C189.093 43.3847 188.191 44.8333 187.098 46.036C186.059 47.184 184.693 48.5233 182.998 50.054C180.975 51.858 179.499 53.3887 178.57 54.646C177.641 55.8487 177.176 57.3247 177.176 59.074H164.794ZM171.026 79.656C168.785 79.656 166.899 78.9453 165.368 77.524C163.892 76.048 163.154 74.2713 163.154 72.194C163.154 70.1167 163.892 68.3947 165.368 67.028C166.844 65.6067 168.73 64.896 171.026 64.896C173.322 64.896 175.208 65.6067 176.684 67.028C178.16 68.3947 178.898 70.1167 178.898 72.194C178.898 74.2713 178.133 76.048 176.602 77.524C175.126 78.9453 173.267 79.656 171.026 79.656Z" fill="#0B768C"/>
<path fill-rule="evenodd" clip-rule="evenodd" d="M102 146.857H193V157.714H102V146.857ZM102 168.571V201.143H193V168.571H102ZM89 146.857C89 140.861 94.8203 136 102 136H193C200.18 136 206 140.861 206 146.857V201.143C206 207.139 200.18 212 193 212H102C94.8203 212 89 207.139 89 201.143V146.857Z" fill="#0B768C"/>
<path fill-rule="evenodd" clip-rule="evenodd" d="M169 121.857H260V132.714H169V121.857ZM169 143.571V176.143H260V143.571H169ZM156 121.857C156 115.861 161.82 111 169 111H260C267.18 111 273 115.861 273 121.857V176.143C273 182.139 267.18 187 260 187H169C161.82 187 156 182.139 156 176.143V121.857Z" fill="#0B768C"/>
</svg>
