<svg width="25" height="25" viewBox="0 0 25 25" fill="none" xmlns="http://www.w3.org/2000/svg">
<g clip-path="url(#clip0)">
<path d="M18.2292 25C14.4958 25 11.4583 21.9625 11.4583 18.2292C11.4583 14.4959 14.4958 11.4584 18.2292 11.4584C21.9625 11.4584 25 14.4959 25 18.2292C25 21.9625 21.9625 25 18.2292 25ZM18.2292 13.0209C15.3573 13.0209 13.0208 15.3573 13.0208 18.2292C13.0208 21.1011 15.3573 23.4375 18.2292 23.4375C21.101 23.4375 23.4375 21.1011 23.4375 18.2292C23.4375 15.3573 21.101 13.0209 18.2292 13.0209Z" fill="white"/>
<path d="M17.1875 20.8334C16.9813 20.8334 16.7813 20.7511 16.6354 20.6043L14.5521 18.5209C14.2469 18.2157 14.2469 17.7209 14.5521 17.4157C14.8573 17.1105 15.3521 17.1105 15.6573 17.4157L17.1511 18.9084L20.2469 15.3709C20.5323 15.0459 21.025 15.0157 21.35 15.298C21.675 15.5814 21.7073 16.0761 21.4229 16.4011L17.7771 20.5678C17.6333 20.7293 17.4292 20.8261 17.2136 20.8334C17.2052 20.8334 17.1958 20.8334 17.1875 20.8334Z" fill="white"/>
<path d="M8.59375 20.8333H2.34375C1.05208 20.8333 0 19.7812 0 18.4895V9.63538C0 8.34371 1.05208 7.29163 2.34375 7.29163H14.3229C14.9948 7.29163 15.6302 7.57808 16.0677 8.08017C16.351 8.40517 16.3187 8.89788 15.9937 9.18225C15.6708 9.46663 15.176 9.43433 14.8917 9.10829C14.75 8.94683 14.5437 8.85413 14.3229 8.85413H2.34375C1.91354 8.85413 1.5625 9.20517 1.5625 9.63538V18.4895C1.5625 18.9198 1.91354 19.2708 2.34375 19.2708H8.59375C9.025 19.2708 9.375 19.6208 9.375 20.052C9.375 20.4833 9.025 20.8333 8.59375 20.8333Z" fill="white"/>
<path d="M12.7604 8.85417C12.3292 8.85417 11.9792 8.50417 11.9792 8.07292V5.20833C11.9792 3.19792 10.3437 1.5625 8.33333 1.5625C6.32291 1.5625 4.6875 3.19792 4.6875 5.20833V8.07292C4.6875 8.50417 4.3375 8.85417 3.90625 8.85417C3.475 8.85417 3.125 8.50417 3.125 8.07292V5.20833C3.125 2.33646 5.46146 0 8.33333 0C11.2052 0 13.5417 2.33646 13.5417 5.20833V8.07292C13.5417 8.50417 13.1917 8.85417 12.7604 8.85417Z" fill="white"/>
</g>
<defs>
<clipPath id="clip0">
<rect width="25" height="25" fill="white"/>
</clipPath>
</defs>
</svg>
