<svg width="25" height="25" viewBox="0 0 25 25" fill="none" xmlns="http://www.w3.org/2000/svg">
<path d="M21.128 15.4905L17.0795 10.7306L20.6754 8.67903C21.0268 8.47864 21.1491 8.03127 20.9487 7.67995C20.7483 7.32859 20.3008 7.20622 19.9496 7.40666C19.6489 7.5782 12.8347 11.4657 12.5 11.6567C12.1637 11.4648 5.34789 7.57634 5.05048 7.40666C4.69911 7.20627 4.2519 7.32849 4.05136 7.67995C3.85097 8.03127 3.97323 8.47859 4.32465 8.67903L7.9206 10.7306L3.87206 15.4905C3.61 15.7987 3.64731 16.2609 3.95546 16.523C4.26357 16.7851 4.72597 16.7476 4.98788 16.4396L9.21528 11.4693L12.1371 13.1362C12.3621 13.2645 12.6381 13.2645 12.8629 13.1362L15.7848 11.4693L20.0122 16.4396C20.2743 16.7478 20.7367 16.7849 21.0446 16.523C21.3527 16.2609 21.39 15.7987 21.128 15.4905Z" fill="white"/>
<path d="M22.8027 3.95508H2.19727C0.985693 3.95508 0 4.94077 0 6.15234V18.8477C0 20.0592 0.985693 21.0449 2.19727 21.0449H22.8027C24.0143 21.0449 25 20.0592 25 18.8477V6.15234C25 4.94077 24.0143 3.95508 22.8027 3.95508ZM23.5352 18.8477C23.5352 19.2515 23.2066 19.5801 22.8027 19.5801H2.19727C1.79341 19.5801 1.46484 19.2515 1.46484 18.8477V6.15234C1.46484 5.74849 1.79341 5.41992 2.19727 5.41992H22.8027C23.2066 5.41992 23.5352 5.74849 23.5352 6.15234V18.8477Z" fill="white"/>
</svg>
