<svg width="333" height="255" viewBox="0 0 333 255" fill="none" xmlns="http://www.w3.org/2000/svg">
<path d="M85.4079 208L85.3699 192.04L77.5419 205.188H74.7679L66.9779 192.382V208H61.2019V181.4H66.2939L76.2499 197.93L86.0539 181.4H91.1079L91.1839 208H85.4079ZM117.103 197.854C117.103 197.93 117.065 198.462 116.989 199.45H101.523C101.801 200.717 102.46 201.717 103.499 202.452C104.537 203.187 105.829 203.554 107.375 203.554C108.439 203.554 109.376 203.402 110.187 203.098C111.023 202.769 111.795 202.262 112.505 201.578L115.659 204.998C113.733 207.202 110.921 208.304 107.223 208.304C104.917 208.304 102.878 207.861 101.105 206.974C99.3315 206.062 97.9635 204.808 97.0008 203.212C96.0382 201.616 95.5568 199.805 95.5568 197.778C95.5568 195.777 96.0255 193.978 96.9628 192.382C97.9255 190.761 99.2302 189.507 100.877 188.62C102.549 187.708 104.411 187.252 106.463 187.252C108.464 187.252 110.275 187.683 111.897 188.544C113.518 189.405 114.785 190.647 115.697 192.268C116.634 193.864 117.103 195.726 117.103 197.854ZM106.501 191.736C105.158 191.736 104.031 192.116 103.119 192.876C102.207 193.636 101.649 194.675 101.447 195.992H111.517C111.314 194.7 110.757 193.674 109.845 192.914C108.933 192.129 107.818 191.736 106.501 191.736ZM133.475 187.252C136.009 187.252 138.048 188.012 139.593 189.532C141.164 191.052 141.949 193.307 141.949 196.296V208H136.021V197.208C136.021 195.587 135.667 194.383 134.957 193.598C134.248 192.787 133.222 192.382 131.879 192.382C130.385 192.382 129.194 192.851 128.307 193.788C127.421 194.7 126.977 196.068 126.977 197.892V208H121.049V187.556H126.711V189.95C127.497 189.089 128.472 188.43 129.637 187.974C130.803 187.493 132.082 187.252 133.475 187.252ZM154.201 208.304C152.504 208.304 150.844 208.101 149.223 207.696C147.602 207.265 146.31 206.733 145.347 206.1L147.323 201.844C148.235 202.427 149.337 202.908 150.629 203.288C151.921 203.643 153.188 203.82 154.429 203.82C156.937 203.82 158.191 203.199 158.191 201.958C158.191 201.375 157.849 200.957 157.165 200.704C156.481 200.451 155.43 200.235 154.011 200.058C152.339 199.805 150.958 199.513 149.869 199.184C148.78 198.855 147.83 198.272 147.019 197.436C146.234 196.6 145.841 195.409 145.841 193.864C145.841 192.572 146.208 191.432 146.943 190.444C147.703 189.431 148.792 188.645 150.211 188.088C151.655 187.531 153.352 187.252 155.303 187.252C156.747 187.252 158.178 187.417 159.597 187.746C161.041 188.05 162.232 188.481 163.169 189.038L161.193 193.256C159.394 192.243 157.431 191.736 155.303 191.736C154.036 191.736 153.086 191.913 152.453 192.268C151.82 192.623 151.503 193.079 151.503 193.636C151.503 194.269 151.845 194.713 152.529 194.966C153.213 195.219 154.302 195.46 155.797 195.688C157.469 195.967 158.837 196.271 159.901 196.6C160.965 196.904 161.89 197.474 162.675 198.31C163.46 199.146 163.853 200.311 163.853 201.806C163.853 203.073 163.473 204.2 162.713 205.188C161.953 206.176 160.838 206.949 159.369 207.506C157.925 208.038 156.202 208.304 154.201 208.304ZM175.756 187.252C178.923 187.252 181.355 188.012 183.052 189.532C184.75 191.027 185.598 193.294 185.598 196.334V208H180.05V205.454C178.936 207.354 176.858 208.304 173.818 208.304C172.248 208.304 170.88 208.038 169.714 207.506C168.574 206.974 167.7 206.239 167.092 205.302C166.484 204.365 166.18 203.301 166.18 202.11C166.18 200.21 166.89 198.715 168.308 197.626C169.752 196.537 171.969 195.992 174.958 195.992H179.67C179.67 194.7 179.278 193.712 178.492 193.028C177.707 192.319 176.529 191.964 174.958 191.964C173.869 191.964 172.792 192.141 171.728 192.496C170.69 192.825 169.803 193.281 169.068 193.864L166.94 189.722C168.055 188.937 169.385 188.329 170.93 187.898C172.501 187.467 174.11 187.252 175.756 187.252ZM175.3 204.314C176.314 204.314 177.213 204.086 177.998 203.63C178.784 203.149 179.341 202.452 179.67 201.54V199.45H175.604C173.172 199.45 171.956 200.248 171.956 201.844C171.956 202.604 172.248 203.212 172.83 203.668C173.438 204.099 174.262 204.314 175.3 204.314ZM189.444 215.676C187.366 215.676 185.783 215.296 184.694 214.536L186.29 210.242C186.974 210.723 187.81 210.964 188.798 210.964C189.558 210.964 190.153 210.711 190.584 210.204C191.014 209.723 191.23 208.988 191.23 208V187.556H197.158V207.962C197.158 210.343 196.474 212.218 195.106 213.586C193.763 214.979 191.876 215.676 189.444 215.676ZM194.194 184.706C193.104 184.706 192.218 184.389 191.534 183.756C190.85 183.123 190.508 182.337 190.508 181.4C190.508 180.463 190.85 179.677 191.534 179.044C192.218 178.411 193.104 178.094 194.194 178.094C195.283 178.094 196.17 178.398 196.854 179.006C197.538 179.614 197.88 180.374 197.88 181.286C197.88 182.274 197.538 183.097 196.854 183.756C196.17 184.389 195.283 184.706 194.194 184.706ZM222.642 197.854C222.642 197.93 222.604 198.462 222.528 199.45H207.062C207.341 200.717 207.999 201.717 209.038 202.452C210.077 203.187 211.369 203.554 212.914 203.554C213.978 203.554 214.915 203.402 215.726 203.098C216.562 202.769 217.335 202.262 218.044 201.578L221.198 204.998C219.273 207.202 216.461 208.304 212.762 208.304C210.457 208.304 208.417 207.861 206.644 206.974C204.871 206.062 203.503 204.808 202.54 203.212C201.577 201.616 201.096 199.805 201.096 197.778C201.096 195.777 201.565 193.978 202.502 192.382C203.465 190.761 204.769 189.507 206.416 188.62C208.088 187.708 209.95 187.252 212.002 187.252C214.003 187.252 215.815 187.683 217.436 188.544C219.057 189.405 220.324 190.647 221.236 192.268C222.173 193.864 222.642 195.726 222.642 197.854ZM212.04 191.736C210.697 191.736 209.57 192.116 208.658 192.876C207.746 193.636 207.189 194.675 206.986 195.992H217.056C216.853 194.7 216.296 193.674 215.384 192.914C214.472 192.129 213.357 191.736 212.04 191.736ZM232.251 190.254C232.96 189.266 233.91 188.519 235.101 188.012C236.317 187.505 237.71 187.252 239.281 187.252V192.724C238.622 192.673 238.179 192.648 237.951 192.648C236.253 192.648 234.923 193.129 233.961 194.092C232.998 195.029 232.517 196.448 232.517 198.348V208H226.589V187.556H232.251V190.254ZM242.805 187.556H248.733V208H242.805V187.556ZM245.769 184.706C244.68 184.706 243.793 184.389 243.109 183.756C242.425 183.123 242.083 182.337 242.083 181.4C242.083 180.463 242.425 179.677 243.109 179.044C243.793 178.411 244.68 178.094 245.769 178.094C246.859 178.094 247.745 178.398 248.429 179.006C249.113 179.614 249.455 180.374 249.455 181.286C249.455 182.274 249.113 183.097 248.429 183.756C247.745 184.389 246.859 184.706 245.769 184.706ZM262.481 187.252C265.648 187.252 268.08 188.012 269.777 189.532C271.474 191.027 272.323 193.294 272.323 196.334V208H266.775V205.454C265.66 207.354 263.583 208.304 260.543 208.304C258.972 208.304 257.604 208.038 256.439 207.506C255.299 206.974 254.425 206.239 253.817 205.302C253.209 204.365 252.905 203.301 252.905 202.11C252.905 200.21 253.614 198.715 255.033 197.626C256.477 196.537 258.694 195.992 261.683 195.992H266.395C266.395 194.7 266.002 193.712 265.217 193.028C264.432 192.319 263.254 191.964 261.683 191.964C260.594 191.964 259.517 192.141 258.453 192.496C257.414 192.825 256.528 193.281 255.793 193.864L253.665 189.722C254.78 188.937 256.11 188.329 257.655 187.898C259.226 187.467 260.834 187.252 262.481 187.252ZM262.025 204.314C263.038 204.314 263.938 204.086 264.723 203.63C265.508 203.149 266.066 202.452 266.395 201.54V199.45H262.329C259.897 199.45 258.681 200.248 258.681 201.844C258.681 202.604 258.972 203.212 259.555 203.668C260.163 204.099 260.986 204.314 262.025 204.314ZM141.586 227.4L130.072 254H123.992L112.516 227.4H119.166L127.26 246.4L135.468 227.4H141.586ZM150.114 233.252C153.281 233.252 155.713 234.012 157.41 235.532C159.107 237.027 159.956 239.294 159.956 242.334V254H154.408V251.454C153.293 253.354 151.216 254.304 148.176 254.304C146.605 254.304 145.237 254.038 144.072 253.506C142.932 252.974 142.058 252.239 141.45 251.302C140.842 250.365 140.538 249.301 140.538 248.11C140.538 246.21 141.247 244.715 142.666 243.626C144.11 242.537 146.327 241.992 149.316 241.992H154.028C154.028 240.7 153.635 239.712 152.85 239.028C152.065 238.319 150.887 237.964 149.316 237.964C148.227 237.964 147.15 238.141 146.086 238.496C145.047 238.825 144.161 239.281 143.426 239.864L141.298 235.722C142.413 234.937 143.743 234.329 145.288 233.898C146.859 233.467 148.467 233.252 150.114 233.252ZM149.658 250.314C150.671 250.314 151.571 250.086 152.356 249.63C153.141 249.149 153.699 248.452 154.028 247.54V245.45H149.962C147.53 245.45 146.314 246.248 146.314 247.844C146.314 248.604 146.605 249.212 147.188 249.668C147.796 250.099 148.619 250.314 149.658 250.314ZM175.424 254.304C173.245 254.304 171.282 253.861 169.534 252.974C167.811 252.062 166.456 250.808 165.468 249.212C164.505 247.616 164.024 245.805 164.024 243.778C164.024 241.751 164.505 239.94 165.468 238.344C166.456 236.748 167.811 235.507 169.534 234.62C171.282 233.708 173.245 233.252 175.424 233.252C177.577 233.252 179.452 233.708 181.048 234.62C182.669 235.507 183.847 236.786 184.582 238.458L179.984 240.928C178.92 239.053 177.387 238.116 175.386 238.116C173.84 238.116 172.561 238.623 171.548 239.636C170.534 240.649 170.028 242.03 170.028 243.778C170.028 245.526 170.534 246.907 171.548 247.92C172.561 248.933 173.84 249.44 175.386 249.44C177.412 249.44 178.945 248.503 179.984 246.628L184.582 249.136C183.847 250.757 182.669 252.024 181.048 252.936C179.452 253.848 177.577 254.304 175.424 254.304ZM187.995 233.556H193.923V254H187.995V233.556ZM190.959 230.706C189.869 230.706 188.983 230.389 188.299 229.756C187.615 229.123 187.273 228.337 187.273 227.4C187.273 226.463 187.615 225.677 188.299 225.044C188.983 224.411 189.869 224.094 190.959 224.094C192.048 224.094 192.935 224.398 193.619 225.006C194.303 225.614 194.645 226.374 194.645 227.286C194.645 228.274 194.303 229.097 193.619 229.756C192.935 230.389 192.048 230.706 190.959 230.706ZM207.67 233.252C210.837 233.252 213.269 234.012 214.966 235.532C216.664 237.027 217.512 239.294 217.512 242.334V254H211.964V251.454C210.85 253.354 208.772 254.304 205.732 254.304C204.162 254.304 202.794 254.038 201.628 253.506C200.488 252.974 199.614 252.239 199.006 251.302C198.398 250.365 198.094 249.301 198.094 248.11C198.094 246.21 198.804 244.715 200.222 243.626C201.666 242.537 203.883 241.992 206.872 241.992H211.584C211.584 240.7 211.192 239.712 210.406 239.028C209.621 238.319 208.443 237.964 206.872 237.964C205.783 237.964 204.706 238.141 203.642 238.496C202.604 238.825 201.717 239.281 200.982 239.864L198.854 235.722C199.969 234.937 201.299 234.329 202.844 233.898C204.415 233.467 206.024 233.252 207.67 233.252ZM207.214 250.314C208.228 250.314 209.127 250.086 209.912 249.63C210.698 249.149 211.255 248.452 211.584 247.54V245.45H207.518C205.086 245.45 203.87 246.248 203.87 247.844C203.87 248.604 204.162 249.212 204.744 249.668C205.352 250.099 206.176 250.314 207.214 250.314Z" fill="#0B768C"/>
<path d="M216.059 25.0001H133.049L183.473 75.0001H216.059V87.5001H196.079L227.153 118.313C228.098 116.563 228.665 114.625 228.665 112.5V37.5001C228.665 30.6251 222.993 25.0001 216.059 25.0001Z" fill="#0B768C"/>
<path d="M96.5552 24.1873L104.119 31.6873C103.173 33.4373 102.606 35.3748 102.606 37.4998V112.5C102.606 119.375 108.279 125 115.212 125H198.222L216.879 143.5L225.766 134.687L105.442 15.3123L96.5552 24.1873ZM140.424 74.9998V87.4998H115.212V74.9998H140.424ZM178.242 105.187V112.5H115.212V99.9998H173.01L178.242 105.187Z" fill="#0B768C"/>
</svg>
