<svg height="640pt" viewBox="-20 -20 640 640" width="640pt" xmlns="http://www.w3.org/2000/svg" ><path fill="#077187" d="m300 0c-165.683594 0-300 134.316406-300 300s134.316406 300 300 300 300-134.316406 300-300c-.1875-165.605469-134.394531-299.8125-300-300zm0 20c70.796875-.039062 138.953125 26.839844 190.660156 75.199219l-63.0625 63.0625c-4.707031-11.070313-15.570312-18.257813-27.597656-18.261719h-200c-16.566406 0-30 13.433594-30 30v30h-60c-16.566406 0-30 13.433594-30 30v200c0 16.566406 13.433594 30 30 30h15.859375l-30.660156 30.660156c-76.015625-81.488281-96.429688-200.3125-51.960938-302.5 44.460938-102.183594 145.320313-168.238281 256.761719-168.160156zm120 200h70c5.523438 0 10 4.476562 10 10v200c0 5.523438-4.476562 10-10 10h-315.859375l43.21875-43.207031c47.101563 44.878906 121.40625 43.980469 167.410156-2.023438 46.003907-46.003906 46.902344-120.308593 2.023438-167.410156l23.207031-23.21875v5.859375c0 5.523438 4.476562 10 10 10zm-47.347656 21.488281c37.238281 39.269531 36.425781 101.054688-1.839844 139.324219-38.269531 38.265625-100.054688 39.078125-139.324219 1.839844zm-154.3125 126.003907c-28.046875-39.710938-23.417969-93.84375 10.960937-128.21875 34.378907-34.371094 88.515625-38.984376 128.21875-10.933594zm153.453125-153.421876c-47.6875-35.898437-114.523438-31.203124-156.722657 11-42.203124 42.199219-46.898437 109.035157-11 156.722657l-58.210937 58.207031h-35.859375c-5.523438 0-10-4.476562-10-10v-200c0-5.523438 4.476562-10 10-10h70c5.523438 0 10-4.476562 10-10v-40c0-5.523438 4.476562-10 10-10h200c5.523438 0 10 4.476562 10 10v5.859375zm-71.792969 365.929688c-70.796875.039062-138.953125-26.839844-190.660156-75.199219l44.800781-44.800781h335.859375c16.566406 0 30-13.433594 30-30v-200c0-16.566406-13.433594-30-30-30h-60v-15.859375l74.800781-74.800781c76.015625 81.488281 96.429688 200.3125 51.960938 302.5-44.460938 102.183594-145.320313 168.238281-256.761719 168.160156zm0 0"/><path fill="#077187" d="m460 290c16.566406 0 30-13.433594 30-30s-13.433594-30-30-30-30 13.433594-30 30 13.433594 30 30 30zm0-40c5.523438 0 10 4.476562 10 10s-4.476562 10-10 10-10-4.476562-10-10 4.476562-10 10-10zm0 0"/></svg>