<svg width="179" height="159" viewBox="0 0 179 159" fill="none" xmlns="http://www.w3.org/2000/svg">
<path d="M93.416 35.336C93.416 33.672 93.784 32.296 94.52 31.208C95.288 30.12 96.392 28.92 97.832 27.608C98.888 26.648 99.656 25.848 100.136 25.208C100.648 24.536 100.904 23.784 100.904 22.952C100.904 21.768 100.424 20.84 99.464 20.168C98.536 19.464 97.288 19.112 95.72 19.112C94.216 19.112 92.872 19.432 91.688 20.072C90.536 20.68 89.56 21.544 88.76 22.664L82.952 19.256C84.296 17.208 86.104 15.624 88.376 14.504C90.68 13.384 93.4 12.824 96.536 12.824C100.216 12.824 103.16 13.608 105.368 15.176C107.608 16.744 108.728 18.92 108.728 21.704C108.728 23.016 108.504 24.168 108.056 25.16C107.64 26.152 107.112 27 106.472 27.704C105.864 28.376 105.064 29.16 104.072 30.056C102.888 31.112 102.024 32.008 101.48 32.744C100.936 33.448 100.664 34.312 100.664 35.336H93.416ZM97.064 47.384C95.752 47.384 94.648 46.968 93.752 46.136C92.888 45.272 92.456 44.232 92.456 43.016C92.456 41.8 92.888 40.792 93.752 39.992C94.616 39.16 95.72 38.744 97.064 38.744C98.408 38.744 99.512 39.16 100.376 39.992C101.24 40.792 101.672 41.8 101.672 43.016C101.672 44.232 101.224 45.272 100.328 46.136C99.464 46.968 98.376 47.384 97.064 47.384Z" fill="#0B768C"/>
<path d="M174.693 97.8534C172.133 97.2134 166.853 95.7734 166.533 97.8534C166.213 99.9334 165.573 103.613 165.573 103.613L161.253 103.933C161.253 103.933 160.773 103.453 160.293 101.693C159.813 99.9334 155.173 84.4134 151.493 79.1334C147.813 73.8534 145.253 74.4934 145.253 74.4934V74.6534C145.253 74.6534 130.853 71.9333 106.373 71.9333C81.8933 71.9333 67.4933 74.6534 67.4933 74.6534V74.4934C67.4933 74.4934 65.0933 73.8534 61.2533 79.1334C57.5733 84.4134 52.9333 99.9334 52.4533 101.693C51.9733 103.453 51.4933 103.933 51.4933 103.933L47.3333 103.613C47.3333 103.613 46.8533 99.9334 46.3733 97.8534C46.0533 95.7734 40.7733 97.2134 38.2133 97.8534C35.8133 98.3334 34.5333 102.333 34.5333 103.133C34.5333 103.933 35.1733 104.573 36.2933 105.053C37.4133 105.533 44.2933 106.013 45.4133 106.013C46.6933 106.013 46.5333 105.693 46.5333 105.693L50.6933 106.013C50.6933 106.013 50.3733 107.453 49.5733 107.773C48.7733 108.093 48.6133 108.893 48.1333 109.533C47.6533 110.173 42.8533 113.693 42.0533 115.773C40.2933 119.773 41.7333 127.613 41.7333 133.533C41.7333 139.293 42.8533 148.573 43.3333 152.413C43.8133 156.253 47.0133 158.973 47.0133 158.973C47.0133 158.973 59.6533 158.973 61.7333 158.973C63.8133 158.973 67.8133 158.333 69.8933 158.333C71.9733 158.333 106.533 158.333 106.533 158.333C106.533 158.333 141.093 158.333 143.173 158.333C145.253 158.333 149.253 158.973 151.333 158.973C153.413 158.973 166.053 158.973 166.053 158.973C166.053 158.973 169.413 156.253 169.733 152.413C170.213 148.573 171.333 139.293 171.333 133.533C171.333 127.773 172.773 119.933 171.013 115.773C170.213 113.853 165.413 110.333 164.933 109.533C164.453 108.893 164.293 108.093 163.493 107.773C162.693 107.453 162.373 106.013 162.373 106.013L166.533 105.693C166.533 105.693 166.373 106.013 167.653 106.013C168.933 106.013 175.653 105.693 176.773 105.053C177.893 104.413 178.533 103.933 178.533 103.133C178.533 102.333 177.253 98.3334 174.693 97.8534ZM56.7733 101.693C57.4133 98.6534 63.4933 78.6534 65.2533 77.3734C65.2533 77.3734 84.4533 75.9334 106.373 75.9334C128.293 75.9334 147.493 77.3734 147.493 77.3734C149.413 78.6534 155.333 98.6534 155.973 101.693C156.613 104.733 155.653 104.733 155.653 104.733H106.533H57.0933C57.0933 104.733 56.1333 104.733 56.7733 101.693ZM62.0533 141.373C60.9333 141.373 48.4533 141.213 48.4533 141.213C48.4533 141.213 51.1733 146.493 51.6533 147.453C52.1333 148.573 52.1333 150.493 50.5333 150.013C49.0933 149.533 47.4933 146.333 47.0133 144.573C46.5333 142.653 45.8933 138.013 45.8933 138.013L64.7733 139.453C64.7733 139.613 63.1733 141.373 62.0533 141.373ZM63.9733 126.333C59.3333 126.333 53.2533 124.573 51.4933 124.093C49.7333 123.613 48.4533 121.693 48.4533 119.133C48.4533 116.573 48.4533 113.853 51.3333 110.973C51.3333 110.973 54.6933 110.973 57.4133 113.213C59.9733 115.293 62.2133 117.213 65.0933 118.173C69.4133 119.453 72.6133 124.093 72.6133 124.093C72.6133 124.093 68.6133 126.333 63.9733 126.333ZM140.453 152.893C138.853 152.893 106.533 152.893 106.533 152.893C106.533 152.893 74.3733 152.893 72.6133 152.893C71.0133 152.893 68.6133 152.573 70.6933 150.333C72.2933 148.733 75.0133 147.453 80.2933 147.453C86.8533 147.453 96.4533 147.453 106.373 147.453C116.293 147.453 125.893 147.453 132.453 147.453C137.733 147.453 140.453 148.733 142.053 150.333C144.453 152.573 142.053 152.893 140.453 152.893ZM167.173 138.173C167.173 138.173 166.533 142.813 166.053 144.733C165.573 146.653 163.973 149.693 162.533 150.173C161.093 150.653 160.933 148.573 161.413 147.613C161.893 146.653 164.613 141.373 164.613 141.373C164.613 141.373 152.133 141.533 151.013 141.533C149.893 141.533 148.453 139.613 148.453 139.613L167.173 138.173ZM164.453 119.133C164.453 121.693 163.333 123.613 161.413 124.093C159.493 124.573 153.413 126.333 148.933 126.333C144.293 126.333 140.293 124.093 140.293 124.093C140.293 124.093 143.333 119.453 147.813 118.173C150.693 117.373 152.773 115.293 155.493 113.213C158.373 110.973 161.573 110.973 161.573 110.973C164.453 113.853 164.453 116.573 164.453 119.133Z" fill="#077187"/>
<rect x="14.6666" y="93.5333" width="5.2" height="65.4667" fill="#077187"/>
<path fill-rule="evenodd" clip-rule="evenodd" d="M17.2414 59C7.71923 59 0 66.7192 0 76.2414C0 85.7635 7.71923 93.4828 17.2414 93.4828C26.7635 93.4828 34.4828 85.7635 34.4828 76.2414C34.4828 66.7192 26.7635 59 17.2414 59ZM22.3035 67.1645C21.0341 66.5859 19.5315 66.2965 17.7955 66.2965H9.31147V85.8965H13.8475V80.4925H17.7955C19.5315 80.4925 21.0341 80.2125 22.3035 79.6525C23.5915 79.0739 24.5808 78.2526 25.2715 77.1885C25.9621 76.1059 26.3075 74.8459 26.3075 73.4085C26.3075 71.9525 25.9621 70.6925 25.2715 69.6285C24.5808 68.5645 23.5915 67.7432 22.3035 67.1645ZM20.6515 75.9285C19.9421 76.5072 18.9061 76.7965 17.5435 76.7965H13.8475V69.9925H17.5435C18.9061 69.9925 19.9421 70.2912 20.6515 70.8885C21.3608 71.4672 21.7155 72.3072 21.7155 73.4085C21.7155 74.4912 21.3608 75.3312 20.6515 75.9285Z" fill="#077187"/>
</svg>
