<svg width="108" height="60" viewBox="0 0 108 60" fill="none" xmlns="http://www.w3.org/2000/svg">
<path d="M104.816 23.312C103.28 22.928 100.112 22.064 99.92 23.312C99.728 24.56 99.3439 26.768 99.3439 26.768L96.7519 26.96C96.7519 26.96 96.464 26.672 96.1759 25.616C95.8879 24.56 93.104 15.248 90.896 12.08C88.688 8.91201 87.1519 9.29601 87.1519 9.29601V9.39201C87.1519 9.39201 78.512 7.76001 63.824 7.76001C49.136 7.76001 40.496 9.39201 40.496 9.39201V9.29601C40.496 9.29601 39.056 8.91201 36.752 12.08C34.544 15.248 31.76 24.56 31.472 25.616C31.184 26.672 30.896 26.96 30.896 26.96L28.4 26.768C28.4 26.768 28.112 24.56 27.824 23.312C27.632 22.064 24.464 22.928 22.928 23.312C21.488 23.6 20.72 26 20.72 26.48C20.72 26.96 21.104 27.344 21.776 27.632C22.448 27.92 26.576 28.208 27.248 28.208C28.016 28.208 27.92 28.016 27.92 28.016L30.416 28.208C30.416 28.208 30.224 29.072 29.744 29.264C29.264 29.456 29.168 29.936 28.88 30.32C28.592 30.704 25.712 32.816 25.232 34.064C24.176 36.464 25.04 41.168 25.04 44.72C25.04 48.176 25.712 53.744 26 56.048C26.288 58.352 28.208 59.984 28.208 59.984C28.208 59.984 35.792 59.984 37.04 59.984C38.288 59.984 40.688 59.6 41.936 59.6C43.184 59.6 63.92 59.6 63.92 59.6C63.92 59.6 84.656 59.6 85.904 59.6C87.152 59.6 89.5519 59.984 90.7999 59.984C92.048 59.984 99.6319 59.984 99.6319 59.984C99.6319 59.984 101.648 58.352 101.84 56.048C102.128 53.744 102.8 48.176 102.8 44.72C102.8 41.264 103.664 36.56 102.608 34.064C102.128 32.912 99.2479 30.8 98.96 30.32C98.672 29.936 98.576 29.456 98.0959 29.264C97.616 29.072 97.424 28.208 97.424 28.208L99.92 28.016C99.92 28.016 99.8239 28.208 100.592 28.208C101.36 28.208 105.392 28.016 106.064 27.632C106.736 27.248 107.12 26.96 107.12 26.48C107.12 26 106.352 23.6 104.816 23.312ZM34.064 25.616C34.448 23.792 38.096 11.792 39.152 11.024C39.152 11.024 50.672 10.16 63.824 10.16C76.976 10.16 88.4959 11.024 88.4959 11.024C89.6479 11.792 93.2 23.792 93.584 25.616C93.9679 27.44 93.3919 27.44 93.3919 27.44H63.92H34.256C34.256 27.44 33.68 27.44 34.064 25.616ZM37.232 49.424C36.56 49.424 29.072 49.328 29.072 49.328C29.072 49.328 30.704 52.496 30.992 53.072C31.28 53.744 31.28 54.896 30.32 54.608C29.456 54.32 28.496 52.4 28.208 51.344C27.92 50.192 27.536 47.408 27.536 47.408L38.864 48.272C38.864 48.368 37.904 49.424 37.232 49.424ZM38.384 40.4C35.6 40.4 31.952 39.344 30.896 39.056C29.84 38.768 29.072 37.616 29.072 36.08C29.072 34.544 29.072 32.912 30.8 31.184C30.8 31.184 32.816 31.184 34.448 32.528C35.984 33.776 37.328 34.928 39.056 35.504C41.648 36.272 43.568 39.056 43.568 39.056C43.568 39.056 41.168 40.4 38.384 40.4ZM84.2719 56.336C83.312 56.336 63.92 56.336 63.92 56.336C63.92 56.336 44.624 56.336 43.568 56.336C42.608 56.336 41.168 56.144 42.416 54.8C43.376 53.84 45.008 53.072 48.176 53.072C52.112 53.072 57.872 53.072 63.824 53.072C69.776 53.072 75.536 53.072 79.472 53.072C82.6399 53.072 84.2719 53.84 85.2319 54.8C86.672 56.144 85.2319 56.336 84.2719 56.336ZM100.304 47.504C100.304 47.504 99.9199 50.288 99.6319 51.44C99.3439 52.592 98.3839 54.416 97.52 54.704C96.656 54.992 96.56 53.744 96.848 53.168C97.136 52.592 98.768 49.424 98.768 49.424C98.768 49.424 91.28 49.52 90.608 49.52C89.936 49.52 89.072 48.368 89.072 48.368L100.304 47.504ZM98.6719 36.08C98.6719 37.616 98 38.768 96.848 39.056C95.696 39.344 92.048 40.4 89.36 40.4C86.576 40.4 84.176 39.056 84.176 39.056C84.176 39.056 86 36.272 88.688 35.504C90.416 35.024 91.6639 33.776 93.296 32.528C95.0239 31.184 96.944 31.184 96.944 31.184C98.672 32.912 98.6719 34.544 98.6719 36.08Z" fill="white"/>
<rect x="8.80005" y="20.72" width="3.12" height="39.28" fill="white"/>
<path fill-rule="evenodd" clip-rule="evenodd" d="M19.7435 14.673C17.4191 15.1497 14.8257 15.388 11.9631 15.388H1.31042C0.475764 13.896 0 12.176 0 10.3448C0 4.63154 4.63154 0 10.3448 0C16.0581 0 20.6896 4.63154 20.6896 10.3448C20.6896 11.8901 20.3508 13.3562 19.7435 14.673Z" fill="white"/>
</svg>
