<svg width="132" height="150" viewBox="0 0 132 150" fill="none" xmlns="http://www.w3.org/2000/svg">
<path d="M57.416 35.336C57.416 33.672 57.784 32.296 58.52 31.208C59.288 30.12 60.392 28.92 61.832 27.608C62.888 26.648 63.656 25.848 64.136 25.208C64.648 24.536 64.904 23.784 64.904 22.952C64.904 21.768 64.424 20.84 63.464 20.168C62.536 19.464 61.288 19.112 59.72 19.112C58.216 19.112 56.872 19.432 55.688 20.072C54.536 20.68 53.56 21.544 52.76 22.664L46.952 19.256C48.296 17.208 50.104 15.624 52.376 14.504C54.68 13.384 57.4 12.824 60.536 12.824C64.216 12.824 67.16 13.608 69.368 15.176C71.608 16.744 72.728 18.92 72.728 21.704C72.728 23.016 72.504 24.168 72.056 25.16C71.64 26.152 71.112 27 70.472 27.704C69.864 28.376 69.064 29.16 68.072 30.056C66.888 31.112 66.024 32.008 65.48 32.744C64.936 33.448 64.664 34.312 64.664 35.336H57.416ZM61.064 47.384C59.752 47.384 58.648 46.968 57.752 46.136C56.888 45.272 56.456 44.232 56.456 43.016C56.456 41.8 56.888 40.792 57.752 39.992C58.616 39.16 59.72 38.744 61.064 38.744C62.408 38.744 63.512 39.16 64.376 39.992C65.24 40.792 65.672 41.8 65.672 43.016C65.672 44.232 65.224 45.272 64.328 46.136C63.464 46.968 62.376 47.384 61.064 47.384Z" fill="#0B768C"/>
<path d="M127.8 93.5557C125.466 92.9721 120.652 91.6591 120.36 93.5557C120.068 95.4523 119.485 98.8078 119.485 98.8078L115.545 99.0995C115.545 99.0995 115.108 98.6619 114.67 97.0571C114.232 95.4523 110.002 81.3009 106.646 76.4865C103.291 71.6721 100.956 72.2556 100.956 72.2556V72.4015C100.956 72.4015 87.8262 69.9214 65.505 69.9214C43.1837 69.9214 30.0535 72.4015 30.0535 72.4015V72.2556C30.0535 72.2556 27.8651 71.6721 24.3638 76.4865C21.0083 81.3009 16.7774 95.4523 16.3398 97.0571C15.9021 98.6619 15.4644 99.0995 15.4644 99.0995L11.6713 98.8078C11.6713 98.8078 11.2336 95.4523 10.7959 93.5557C10.5041 91.6591 5.68974 92.9721 3.35549 93.5557C1.16713 93.9934 0 97.6406 0 98.3701C0 99.0995 0.583563 99.6831 1.6048 100.121C2.62603 100.558 8.89934 100.996 9.92057 100.996C11.0877 100.996 10.9418 100.704 10.9418 100.704L14.735 100.996C14.735 100.996 14.4432 102.309 13.7137 102.601C12.9843 102.893 12.8384 103.622 12.4007 104.206C11.963 104.789 7.58632 107.999 6.85687 109.895C5.25207 113.543 6.56508 120.691 6.56508 126.089C6.56508 131.341 7.58632 139.803 8.02399 143.304C8.46166 146.806 11.3795 149.286 11.3795 149.286C11.3795 149.286 22.9049 149.286 24.8014 149.286C26.698 149.286 30.3453 148.702 32.2419 148.702C34.1384 148.702 65.6508 148.702 65.6508 148.702C65.6508 148.702 97.1632 148.702 99.0598 148.702C100.956 148.702 104.604 149.286 106.5 149.286C108.397 149.286 119.922 149.286 119.922 149.286C119.922 149.286 122.986 146.806 123.278 143.304C123.715 139.803 124.737 131.341 124.737 126.089C124.737 120.837 126.05 113.689 124.445 109.895C123.715 108.145 119.339 104.935 118.901 104.206C118.463 103.622 118.317 102.893 117.588 102.601C116.858 102.309 116.567 100.996 116.567 100.996L120.36 100.704C120.36 100.704 120.214 100.996 121.381 100.996C122.548 100.996 128.676 100.704 129.697 100.121C130.718 99.5372 131.302 99.0995 131.302 98.3701C131.302 97.6406 130.135 93.9934 127.8 93.5557ZM20.2788 97.0571C20.8624 94.2851 26.4062 76.0488 28.011 74.8817C28.011 74.8817 45.5179 73.5687 65.505 73.5687C85.492 73.5687 102.999 74.8817 102.999 74.8817C104.75 76.0488 110.148 94.2851 110.731 97.0571C111.315 99.829 110.439 99.829 110.439 99.829H65.6508H20.5706C20.5706 99.829 19.6953 99.829 20.2788 97.0571ZM25.0932 133.238C24.072 133.238 12.6925 133.092 12.6925 133.092C12.6925 133.092 15.1726 137.906 15.6103 138.782C16.048 139.803 16.048 141.554 14.5891 141.116C13.2761 140.678 11.8172 137.761 11.3795 136.156C10.9418 134.405 10.3582 130.174 10.3582 130.174L27.5734 131.487C27.5734 131.633 26.1144 133.238 25.0932 133.238ZM26.8439 119.524C22.6131 119.524 17.0692 117.919 15.4644 117.482C13.8596 117.044 12.6925 115.293 12.6925 112.959C12.6925 110.625 12.6925 108.145 15.3185 105.519C15.3185 105.519 18.3822 105.519 20.8624 107.561C23.1966 109.458 25.2391 111.208 27.8651 112.084C31.8042 113.251 34.722 117.482 34.722 117.482C34.722 117.482 31.0747 119.524 26.8439 119.524ZM96.5797 143.742C95.1208 143.742 65.6508 143.742 65.6508 143.742C65.6508 143.742 36.3268 143.742 34.722 143.742C33.2631 143.742 31.0747 143.45 32.9713 141.408C34.4302 139.949 36.9104 138.782 41.7248 138.782C47.7063 138.782 56.4597 138.782 65.505 138.782C74.5502 138.782 83.3036 138.782 89.2851 138.782C94.0995 138.782 96.5797 139.949 98.0386 141.408C100.227 143.45 98.0386 143.742 96.5797 143.742ZM120.943 130.32C120.943 130.32 120.36 134.551 119.922 136.302C119.485 138.052 118.026 140.824 116.713 141.262C115.4 141.7 115.254 139.803 115.691 138.928C116.129 138.052 118.609 133.238 118.609 133.238C118.609 133.238 107.23 133.384 106.208 133.384C105.187 133.384 103.874 131.633 103.874 131.633L120.943 130.32ZM118.463 112.959C118.463 115.293 117.442 117.044 115.691 117.482C113.941 117.919 108.397 119.524 104.312 119.524C100.081 119.524 96.4338 117.482 96.4338 117.482C96.4338 117.482 99.2057 113.251 103.291 112.084C105.917 111.354 107.813 109.458 110.293 107.561C112.919 105.519 115.837 105.519 115.837 105.519C118.463 108.145 118.463 110.625 118.463 112.959Z" fill="#077187"/>
</svg>
