<svg width="25" height="25" viewBox="0 0 25 25" fill="none" xmlns="http://www.w3.org/2000/svg">
<path d="M19.7917 8.33335V7.2917C19.7917 3.27188 16.5209 0 12.5 0C8.47916 0 5.20836 3.27187 5.20836 7.29165V8.3333C3.48546 8.3333 2.08336 9.7354 2.08336 11.4583V21.875C2.08336 23.5979 3.48546 25 5.20836 25H19.7917C21.5146 25 22.9167 23.5979 22.9167 21.875V11.4584C22.9167 9.7354 21.5146 8.33335 19.7917 8.33335ZM7.29166 7.29165C7.29166 4.41978 9.62813 2.0833 12.5 2.0833C15.3719 2.0833 17.7084 4.41978 17.7084 7.29165V8.3333H7.29166V7.29165ZM20.8334 21.875C20.8334 22.45 20.3656 22.9167 19.7917 22.9167H5.20836C4.63438 22.9167 4.16671 22.45 4.16671 21.875V11.4584C4.16671 10.8834 4.63443 10.4167 5.20836 10.4167H19.7917C20.3657 10.4167 20.8334 10.8834 20.8334 11.4584V21.875Z" fill="white"/>
<path d="M12.5 11.9791C10.7771 11.9791 9.375 13.3812 9.375 15.1041C9.375 16.4604 10.249 17.6062 11.4583 18.0375V19.7916C11.4583 20.3676 11.925 20.8333 12.5 20.8333C13.075 20.8333 13.5417 20.3676 13.5417 19.7916V18.0375C14.751 17.6062 15.625 16.4604 15.625 15.1041C15.625 13.3812 14.2229 11.9791 12.5 11.9791ZM12.5 16.1458C11.926 16.1458 11.4583 15.6792 11.4583 15.1042C11.4583 14.5292 11.926 14.0625 12.5 14.0625C13.074 14.0625 13.5417 14.5291 13.5417 15.1041C13.5417 15.6791 13.074 16.1458 12.5 16.1458Z" fill="white"/>
</svg>
