<svg width="25" height="25" viewBox="0 0 25 25" fill="none" xmlns="http://www.w3.org/2000/svg">
<path d="M12.5 25C9.54028 25 6.66963 23.9471 4.41685 22.0351C3.88789 21.5865 3.3917 21.0891 2.94219 20.5568C1.04478 18.3078 0 15.4466 0 12.5C0 9.16108 1.3002 6.02207 3.66113 3.66113C6.02207 1.3002 9.16108 0 12.5 0C15.8389 0 18.9779 1.3002 21.3389 3.66113C23.6998 6.02207 25 9.16108 25 12.5C25 15.4467 23.9552 18.3079 22.0581 20.5565C21.6083 21.0891 21.1121 21.5865 20.583 22.0353C18.3304 23.9471 15.4597 25 12.5 25ZM12.5 1.5625C6.46904 1.5625 1.5625 6.46904 1.5625 12.5C1.5625 15.0784 2.47651 17.5817 4.13618 19.549C4.52974 20.0149 4.96436 20.4506 5.42773 20.8437C7.39863 22.5164 9.9102 23.4375 12.5 23.4375C15.0898 23.4375 17.6014 22.5164 19.5721 20.8438C20.0356 20.4506 20.4703 20.0149 20.8641 19.5486C22.5235 17.5818 23.4375 15.0784 23.4375 12.5C23.4375 6.46904 18.531 1.5625 12.5 1.5625Z" fill="white"/>
<path d="M12.5 12.5C9.91528 12.5 7.8125 10.3972 7.8125 7.8125C7.8125 5.22778 9.91528 3.125 12.5 3.125C15.0847 3.125 17.1875 5.22778 17.1875 7.8125C17.1875 10.3972 15.0847 12.5 12.5 12.5ZM12.5 4.6875C10.7769 4.6875 9.375 6.08936 9.375 7.8125C9.375 9.53564 10.7769 10.9375 12.5 10.9375C14.2231 10.9375 15.625 9.53564 15.625 7.8125C15.625 6.08936 14.2231 4.6875 12.5 4.6875Z" fill="white"/>
<path d="M20.0782 22.2209C20.0152 22.2209 19.9513 22.2132 19.8874 22.1972C19.4689 22.0922 19.2148 21.6678 19.3199 21.2493C19.4601 20.6905 19.5312 20.1125 19.5312 19.5312C19.5312 15.7087 16.4235 12.5554 12.6029 12.5005L12.5 12.5L12.3971 12.5005C8.57647 12.5554 5.46875 15.7087 5.46875 19.5312C5.46875 20.1125 5.53989 20.6905 5.68013 21.2493C5.78516 21.6678 5.53105 22.0922 5.1126 22.1972C4.69414 22.3022 4.26968 22.0482 4.16465 21.6297C3.99316 20.9466 3.90625 20.2406 3.90625 19.5312C3.90625 17.2569 4.78599 15.1131 6.3834 13.4946C7.97925 11.8777 10.1083 10.9698 12.3782 10.9381C12.3819 10.938 12.3855 10.938 12.3892 10.938L12.5 10.9375L12.6108 10.938C12.6145 10.938 12.6181 10.938 12.6218 10.938C14.8917 10.9697 17.0208 11.8777 18.6166 13.4946C20.214 15.1131 21.0938 17.2569 21.0938 19.5312C21.0938 20.2406 21.0068 20.9466 20.8354 21.6297C20.7463 21.9843 20.428 22.2208 20.0782 22.2209Z" fill="white"/>
</svg>
