<svg width="40" height="40" viewBox="0 0 40 40" fill="none" xmlns="http://www.w3.org/2000/svg">
<g clip-path="url(#clip0)">
<path d="M37.9696 12.8931H32.5563C32.555 12.8931 32.5537 12.8931 32.5523 12.8931H25.9161C25.9148 12.8931 25.9134 12.8931 25.912 12.8931H19.2758C19.2745 12.8931 19.2731 12.8931 19.2717 12.8931H16.1147V10.8302C16.1147 6.38766 12.5002 2.77344 8.05734 2.77344C3.61453 2.77344 0 6.38766 0 10.8302V23.8033C0 24.1294 0.264297 24.3937 0.590391 24.3937C0.916484 24.3937 1.18078 24.1294 1.18078 23.8033V10.8302C1.18078 7.03875 4.26555 3.95414 8.05727 3.95414C11.849 3.95414 14.9338 7.03875 14.9338 10.8302V34.1385C14.9338 35.1902 14.0781 36.0459 13.0264 36.0459H3.08828C2.03648 36.0459 1.18086 35.1902 1.18086 34.1385V27.001C1.18086 26.6749 0.916562 26.4106 0.590469 26.4106C0.264375 26.4106 0 26.6748 0 27.0009V34.1384C0 35.8412 1.38539 37.2266 3.08828 37.2266H13.0265C14.7294 37.2266 16.1148 35.8412 16.1148 34.1384V20.9448H22.0983C22.099 20.9448 22.0997 20.9449 22.1003 20.9449C22.1013 20.9449 22.1024 20.9448 22.1035 20.9448H28.7385C28.7392 20.9448 28.7399 20.9449 28.7405 20.9449C28.7416 20.9449 28.7427 20.9448 28.7438 20.9448H35.3787C35.3795 20.9448 35.3802 20.9449 35.3808 20.9449C35.3818 20.9449 35.3829 20.9448 35.384 20.9448H37.9696C39.0892 20.9448 40 20.034 40 18.9145V14.9234C40 13.8039 39.0892 12.8931 37.9696 12.8931ZM29.1356 19.7641L26.791 14.0738H32.1541L34.4987 19.7641H29.1356ZM22.4954 19.7641L20.1507 14.0738H25.5138L27.8584 19.7641H22.4954ZM16.1148 14.0738H18.8736L21.2182 19.7641H16.1147V14.0738H16.1148ZM38.8192 18.9145C38.8192 19.3829 38.438 19.7641 37.9696 19.7641H35.7759L33.4313 14.0738H37.9697C38.4382 14.0738 38.8193 14.455 38.8193 14.9234V18.9145H38.8192Z" fill="white"/>
<path d="M11.3841 19.1797H9.25961C8.93351 19.1797 8.66922 19.444 8.66922 19.7701C8.66922 20.0961 8.93351 20.3604 9.25961 20.3604H11.3841C12.179 20.3604 12.8257 19.7128 12.8257 18.9168V12.2858C12.8257 11.4897 12.1791 10.8422 11.3841 10.8422H4.75281C3.95672 10.8422 3.30906 11.4897 3.30906 12.2858V18.9168C3.30906 19.7129 3.95672 20.3604 4.75281 20.3604H6.37953C6.70562 20.3604 6.96992 20.0961 6.96992 19.7701C6.96992 19.444 6.70562 19.1797 6.37953 19.1797H4.75281C4.61031 19.1797 4.48992 19.0592 4.48992 18.9167V12.2858C4.48992 12.1433 4.61031 12.0229 4.75281 12.0229H11.3841C11.5255 12.0229 11.6448 12.1433 11.6448 12.2858V18.9167C11.6448 19.0592 11.5255 19.1797 11.3841 19.1797Z" fill="white"/>
</g>
<defs>
<clipPath id="clip0">
<rect width="40" height="40" fill="white"/>
</clipPath>
</defs>
</svg>
