<svg width="40" height="40" viewBox="0 0 40 40" fill="none" xmlns="http://www.w3.org/2000/svg">
<g clip-path="url(#clip0)">
<path d="M39.5798 18.4283L16.9799 5.50267C15.2367 4.50408 12.8507 5.04244 11.7015 6.68695L7.32338 12.9458C6.8937 13.5608 6.66667 14.2817 6.66667 15.0318C6.66667 16.3277 7.3633 17.5348 8.48384 18.1816L13.2502 20.9341L12.3892 22.0831C11.9229 22.7046 11.6665 23.4751 11.6665 24.2522C11.6665 25.0513 11.9592 25.8031 12.4306 26.4245L11.162 28.3333H4.99996V25.8251C4.99996 25.3641 4.62723 25 4.16661 25H0.833353C0.372731 25 0 25.3641 0 25.8251V34.1659C0 34.6269 0.372731 34.9999 0.833353 34.9999H4.16669C4.62731 34.9999 5.00004 34.6269 5.00004 34.1659V33.3333H11.1621C12.8377 33.3333 14.3929 32.501 15.3222 31.1057L16.6881 29.055C16.9512 29.1121 17.2165 29.1639 17.4877 29.1639C18.8141 29.1639 20.0625 28.4569 20.7445 27.3182L21.6601 25.7908L28.7523 29.8865C28.88 29.9606 29.0241 29.998 29.1689 29.998C29.2495 29.998 29.3301 29.9866 29.409 29.963C29.6287 29.8962 29.8118 29.7422 29.9144 29.537L30.5313 28.3004C30.6326 28.308 30.73 28.3299 30.8331 28.3299C34.0493 28.3299 36.6664 25.7104 36.6664 22.4914C36.6664 22.1378 36.6142 21.7736 36.5367 21.4011L39.5391 19.8987C39.8142 19.7611 39.9908 19.4833 39.9998 19.1754C40.0078 18.8682 39.8467 18.5807 39.5798 18.4283ZM3.33333 33.3333H1.66663V26.6667H3.33325V33.3333H3.33333ZM13.9354 30.1847C13.3161 31.1141 12.2794 31.6691 11.162 31.6691H4.99996V30.0025H11.162C11.7219 30.0025 12.2403 29.725 12.5487 29.2603L13.7027 27.5287L15.1338 28.3872L13.9354 30.1847ZM19.3155 26.4673C18.7328 27.4365 17.3616 27.7816 16.3915 27.198L14.2781 25.9302C13.6954 25.581 13.3333 24.9414 13.3333 24.2619C13.3333 23.8436 13.4716 23.4294 13.7222 23.0941L14.7038 21.7854L20.2162 24.966L19.3155 26.4673ZM28.8189 28.0054L9.31633 16.753C8.71009 16.403 8.33329 15.7504 8.33329 15.0497C8.33329 14.6436 8.45618 14.2538 8.68892 13.921L10.7812 10.9327L31.4034 22.8298L28.8189 28.0054ZM31.3763 26.6141L33.1207 23.1209L34.9718 22.1954C34.9811 22.2977 34.9997 22.4035 34.9997 22.5025C34.9997 24.6138 33.4151 26.3446 31.3763 26.6141ZM32.528 21.5541L11.7408 9.56201L13.0672 7.66781C13.5058 7.04117 14.2236 6.6668 14.9886 6.6668C15.3963 6.6668 15.7991 6.77344 16.1531 6.97601L37.4013 19.1179L32.528 21.5541Z" fill="#077187"/>
<path d="M27.4999 25C27.9602 25 28.3333 24.6269 28.3333 24.1667C28.3333 23.7064 27.9602 23.3333 27.4999 23.3333C27.0397 23.3333 26.6666 23.7064 26.6666 24.1667C26.6666 24.6269 27.0397 25 27.4999 25Z" fill="#077187"/>
</g>
<defs>
<clipPath id="clip0">
<rect width="40" height="40" fill="white"/>
</clipPath>
</defs>
</svg>
