<svg width="40" height="40" viewBox="0 0 40 40" fill="none" xmlns="http://www.w3.org/2000/svg">
<g clip-path="url(#clip0)">
<path d="M7.43666 32.1953C6.37517 32.1199 5.45368 32.9194 5.37835 33.9809C5.30302 35.0424 6.10251 35.9639 7.164 36.0392C7.21066 36.0425 7.25733 36.0439 7.30333 36.0439C8.3674 36.0435 9.22964 35.1806 9.22931 34.1166C9.22889 33.1047 8.44598 32.2656 7.43666 32.1953ZM7.89482 34.1549C7.89474 34.1556 7.89474 34.1564 7.89466 34.1571L7.89199 34.1591C7.88224 34.316 7.81024 34.4624 7.69199 34.5658C7.57399 34.6703 7.41841 34.7221 7.26133 34.7091C6.93442 34.6872 6.68709 34.4044 6.70909 34.0774C6.73 33.7652 6.98983 33.5229 7.30266 33.5238H7.34466C7.67083 33.5462 7.91716 33.8287 7.89482 34.1549Z" fill="white"/>
<path d="M28.7698 32.1953C27.7083 32.1199 26.7868 32.9194 26.7115 33.9809C26.6361 35.0424 27.4356 35.9639 28.4971 36.0392C28.5438 36.0425 28.5905 36.0439 28.6365 36.0439C29.7005 36.0435 30.5628 35.1806 30.5624 34.1166C30.562 33.1047 29.7791 32.2656 28.7698 32.1953ZM29.2279 34.1549C29.2279 34.1556 29.2279 34.1564 29.2278 34.1571L29.2251 34.1591C29.2154 34.316 29.1434 34.4624 29.0251 34.5658C28.9073 34.6706 28.7516 34.7224 28.5945 34.7091C28.2675 34.6872 28.0202 34.4044 28.0422 34.0774C28.0631 33.7652 28.323 33.5229 28.6358 33.5238H28.6778C29.0039 33.5462 29.2503 33.8287 29.2279 34.1549Z" fill="white"/>
<path d="M18.6666 28.0006H15.9999C15.6318 28.0006 15.3333 28.2991 15.3333 28.6673C15.3333 29.0354 15.6318 29.3339 15.9999 29.3339H18.6666C19.0347 29.3339 19.3332 29.0354 19.3332 28.6673C19.3332 28.2991 19.0347 28.0006 18.6666 28.0006Z" fill="white"/>
<path d="M4.40004 4.13422C4.28462 4.04764 4.14429 4.00089 4.00004 4.00089H3.33338L4.53337 2.4009C4.75428 2.10632 4.69462 1.68849 4.40004 1.46758C4.10546 1.24667 3.68763 1.30633 3.46671 1.60091L1.46673 4.26755C1.24582 4.56213 1.30548 4.97996 1.60007 5.20087C1.71548 5.28746 1.85581 5.33421 2.00006 5.33421H2.66672L1.46673 6.93419C1.24574 7.2286 1.30523 7.64652 1.59965 7.8676C1.89406 8.08868 2.31197 8.0291 2.53306 7.73468C2.53314 7.73451 2.53331 7.73435 2.53339 7.73418L4.53337 5.06754C4.75428 4.77296 4.69453 4.35513 4.40004 4.13422Z" fill="white"/>
<path d="M37.8375 16.0006C35.8801 13.474 32.8625 11.9969 29.6664 12.0007H13.2799C12.9488 9.7068 10.9843 8.00348 8.66659 8.00073H4.66663C4.29847 8.00073 3.99997 8.29923 3.99997 8.66739V10.0007H1.14656e-05V11.334H3.99997V14.0007H1.14656e-05V15.334H3.99997V16.6673C3.99997 17.0355 4.29847 17.334 4.66663 17.334H8.66659C10.9843 17.3312 12.9488 15.6279 13.2799 13.334H29.6664C34.6287 13.3257 38.6584 17.3418 38.6666 22.3042C38.6706 24.7097 37.7099 27.0164 35.9996 28.7078V27.3339C35.9996 27.157 35.9293 26.9875 35.8043 26.8625L34.791 25.8492C31.2379 22.2778 26.4585 20.193 21.4238 20.0186C21.394 20.0105 21.3637 20.0045 21.3331 20.0006C21.309 20.0039 21.2852 20.0087 21.2618 20.0153C21.0618 20.0093 20.8691 20.0006 20.6718 20.0006C15.7809 19.9989 11.0598 21.7936 7.40527 25.0439L7.0006 25.4039L3.32598 26.5065C1.34616 27.0904 -0.00948843 28.9124 1.14656e-05 30.9765V34.0005C1.14656e-05 34.3686 0.298508 34.6671 0.666671 34.6671H2.71998C3.0859 37.2149 5.44795 38.9837 7.99584 38.6178C10.0437 38.3237 11.6525 36.7148 11.9466 34.6671H24.0531C24.419 37.2149 26.7811 38.9837 29.329 38.6178C31.3768 38.3237 32.9856 36.7148 33.2797 34.6671H35.333C35.7011 34.6671 35.9996 34.3686 35.9996 34.0005V30.4798C40.5056 26.989 41.3284 20.5064 37.8375 16.0006ZM8.66667 16.0007H5.33337V9.33414H8.66667C10.5076 9.33414 12 10.8265 12 12.6674C12 14.5083 10.5076 16.0007 8.66667 16.0007ZM7.33335 37.3338C5.49245 37.3338 4.00005 35.8414 4.00005 34.0005C4.00005 32.1596 5.49245 30.6672 7.33335 30.6672C9.17425 30.6672 10.6666 32.1596 10.6666 34.0005C10.6644 35.8405 9.17333 37.3316 7.33335 37.3338ZM20.6665 33.3339H11.9526C11.9453 33.2825 11.9326 33.2332 11.9233 33.1826C11.912 33.1159 11.9013 33.0552 11.8873 32.9926C11.8686 32.9086 11.846 32.8259 11.8206 32.7439C11.804 32.6846 11.7886 32.6246 11.7693 32.5666C11.742 32.4812 11.7093 32.3979 11.6773 32.3146C11.6566 32.2619 11.6386 32.2086 11.616 32.1572C11.576 32.0639 11.5306 31.9739 11.4826 31.8839C11.4626 31.8452 11.4453 31.8046 11.4246 31.7666C11.358 31.6412 11.2813 31.5186 11.2013 31.3999C11.1813 31.3706 11.1586 31.3432 11.1346 31.3146C11.0726 31.2259 11.0093 31.1386 10.9413 31.0552C10.9066 31.0132 10.8693 30.9739 10.8333 30.9332C10.7746 30.8666 10.716 30.7999 10.654 30.7332C10.6126 30.6906 10.5687 30.6506 10.5253 30.6099C10.464 30.5526 10.4027 30.4952 10.3387 30.4406C10.292 30.4006 10.2433 30.3632 10.1947 30.3252C10.128 30.2746 10.0647 30.2252 9.99466 30.1779C9.94332 30.1419 9.89132 30.1072 9.83799 30.0732C9.77133 30.0292 9.69999 29.9873 9.62933 29.9466C9.57466 29.9153 9.51866 29.8846 9.46266 29.8553C9.39 29.8179 9.31533 29.7826 9.24066 29.7486C9.18333 29.7226 9.126 29.6966 9.068 29.6733C8.98933 29.6413 8.90933 29.6133 8.82934 29.5853C8.77067 29.5659 8.71334 29.5446 8.654 29.5273C8.56867 29.5019 8.48201 29.4813 8.39534 29.4606C8.33801 29.4473 8.28201 29.4319 8.22401 29.4206C8.12668 29.4013 8.02734 29.3879 7.92734 29.3753C7.87801 29.3686 7.82935 29.3593 7.77935 29.3546C7.64001 29.3426 7.48735 29.3339 7.33335 29.3339C7.17935 29.3339 7.02669 29.3426 6.87669 29.3573C6.82669 29.3619 6.77802 29.3713 6.72869 29.3779C6.62869 29.3906 6.52869 29.4039 6.43203 29.4233C6.37403 29.4346 6.31803 29.4499 6.2607 29.4633C6.17403 29.4839 6.08736 29.5046 6.00203 29.5299C5.9427 29.5473 5.88537 29.5686 5.8267 29.5879C5.7467 29.6159 5.6667 29.6439 5.58804 29.6759C5.53004 29.6993 5.4727 29.7253 5.41537 29.7513C5.34071 29.7853 5.26604 29.8179 5.19337 29.8579C5.13737 29.8873 5.08137 29.9179 5.02671 29.9492C4.95604 29.9899 4.88604 30.0319 4.81804 30.0759C4.76471 30.1099 4.71271 30.1426 4.66138 30.1806C4.59471 30.2279 4.52805 30.2772 4.46138 30.3279C4.41271 30.3659 4.36405 30.4032 4.31738 30.4432C4.25072 30.4979 4.19205 30.5552 4.13072 30.6126C4.08739 30.6532 4.04339 30.6932 4.00205 30.7359C3.94005 30.7992 3.88139 30.8692 3.82272 30.9359C3.78672 30.9766 3.74939 31.0159 3.71472 31.0579C3.64806 31.1412 3.58139 31.2286 3.52139 31.3172C3.50072 31.3459 3.47806 31.3732 3.45806 31.4026C3.37806 31.5212 3.30406 31.6439 3.23473 31.7692C3.21406 31.8072 3.19673 31.8479 3.17673 31.8866C3.13073 31.9766 3.0854 32.0666 3.0434 32.1599C3.02073 32.2112 3.00273 32.2646 2.98206 32.3172C2.95006 32.4006 2.9154 32.4839 2.89006 32.5692C2.87073 32.6272 2.8554 32.6872 2.83873 32.7466C2.81607 32.8286 2.7934 32.9112 2.77207 32.9952C2.75807 33.0579 2.7474 33.1219 2.73607 33.1852C2.72673 33.2359 2.71407 33.2852 2.70673 33.3365H1.33341V30.9766C1.32658 29.5024 2.29474 28.201 3.70872 27.7839L7.43202 26.6673H20.6665V33.3339ZM20.6665 25.334H9.14266C12.4254 22.7437 16.4849 21.3346 20.6665 21.334V25.334ZM21.9999 21.386C24.8818 21.5825 27.6776 22.4522 30.1624 23.9253L27.8151 25.334H21.9999V21.386ZM28.6665 37.3338C26.8256 37.3338 25.3332 35.8414 25.3332 34.0005C25.3332 32.1596 26.8256 30.6672 28.6665 30.6672C30.5074 30.6672 31.9998 32.1596 31.9998 34.0005C31.9975 35.8405 30.5064 37.3316 28.6665 37.3338ZM34.6664 33.3339H33.2857C33.2784 33.2825 33.2657 33.2332 33.2564 33.1826C33.2451 33.1159 33.2344 33.0552 33.2204 32.9926C33.2017 32.9086 33.1791 32.8259 33.1537 32.7439C33.1371 32.6846 33.1217 32.6246 33.1024 32.5666C33.0751 32.4812 33.0424 32.3979 33.0104 32.3146C32.9897 32.2619 32.9717 32.2086 32.9491 32.1572C32.9091 32.0639 32.8638 31.9739 32.8158 31.8839C32.7957 31.8452 32.7784 31.8046 32.7578 31.7666C32.6911 31.6412 32.6144 31.5186 32.5344 31.3999C32.5144 31.3706 32.4918 31.3432 32.4711 31.3146C32.4091 31.2259 32.3458 31.1386 32.2778 31.0552C32.2431 31.0132 32.2058 30.9739 32.1698 30.9332C32.1111 30.8666 32.0524 30.7999 31.9904 30.7332C31.9491 30.6906 31.9051 30.6506 31.8618 30.6099C31.8004 30.5526 31.7391 30.4952 31.6751 30.4406C31.6284 30.4006 31.5798 30.3632 31.5311 30.3252C31.4644 30.2746 31.3978 30.2252 31.3311 30.1779C31.2798 30.1419 31.2278 30.1072 31.1744 30.0732C31.1078 30.0292 31.0364 29.9873 30.9658 29.9466C30.9111 29.9153 30.8551 29.8846 30.7991 29.8553C30.7264 29.8179 30.6518 29.7826 30.5771 29.7486C30.5198 29.7226 30.4624 29.6966 30.4044 29.6733C30.3258 29.6413 30.2458 29.6133 30.1658 29.5853C30.1071 29.5659 30.0498 29.5446 29.9904 29.5273C29.9051 29.5019 29.8184 29.4813 29.7318 29.4606C29.6744 29.4473 29.6185 29.4319 29.5605 29.4206C29.4631 29.4013 29.3638 29.3879 29.2638 29.3753C29.2145 29.3686 29.1658 29.3593 29.1158 29.3546C28.9731 29.3426 28.8205 29.3339 28.6665 29.3339C28.5125 29.3339 28.3598 29.3426 28.2098 29.3573C28.1598 29.3619 28.1111 29.3713 28.0618 29.3779C27.9618 29.3906 27.8618 29.4039 27.7651 29.4233C27.7071 29.4346 27.6511 29.4499 27.5938 29.4633C27.5071 29.4839 27.4205 29.5046 27.3351 29.5299C27.2758 29.5473 27.2185 29.5686 27.1598 29.5879C27.0798 29.6159 26.9998 29.6439 26.9211 29.6759C26.8631 29.6993 26.8058 29.7253 26.7485 29.7513C26.6738 29.7853 26.5992 29.8179 26.5265 29.8579C26.4705 29.8873 26.4145 29.9179 26.3598 29.9492C26.2892 29.9899 26.2192 30.0319 26.1512 30.0759C26.0978 30.1099 26.0458 30.1426 25.9945 30.1806C25.9278 30.2279 25.8612 30.2772 25.7945 30.3279C25.7458 30.3659 25.6972 30.4032 25.6505 30.4432C25.5838 30.4979 25.5252 30.5552 25.4638 30.6126C25.4205 30.6532 25.3765 30.6932 25.3352 30.7359C25.2732 30.7992 25.2145 30.8692 25.1558 30.9359C25.1198 30.9766 25.0825 31.0159 25.0478 31.0579C24.9812 31.1412 24.9145 31.2286 24.8545 31.3172C24.8338 31.3459 24.8112 31.3732 24.7912 31.4026C24.7112 31.5212 24.6372 31.6439 24.5678 31.7692C24.5472 31.8072 24.5298 31.8479 24.5098 31.8866C24.4638 31.9766 24.4185 32.0666 24.3765 32.1599C24.3538 32.2112 24.3358 32.2646 24.3152 32.3172C24.2832 32.4006 24.2485 32.4839 24.2232 32.5692C24.2038 32.6272 24.1885 32.6872 24.1718 32.7466C24.1492 32.8286 24.1265 32.9112 24.1052 32.9952C24.0912 33.0579 24.0805 33.1219 24.0692 33.1852C24.0598 33.2359 24.0472 33.2852 24.0398 33.3365H21.9999V26.6673H27.9998C28.1208 26.6673 28.2395 26.6343 28.3431 26.572L31.4038 24.734C32.2755 25.3487 33.0933 26.0365 33.8484 26.79L34.6664 27.6099V33.3339Z" fill="white"/>
</g>
<defs>
<clipPath id="clip0">
<rect width="40" height="40" fill="white"/>
</clipPath>
</defs>
</svg>
