<svg width="40" height="40" viewBox="0 0 40 40" fill="none" xmlns="http://www.w3.org/2000/svg">
<path d="M37.5 12.5H39.375V11.25H37.9187L34.9781 4.10812C34.1063 1.9925 32.065 0.625 29.7769 0.625H19.5956C17.68 0.625 15.9137 1.58563 14.8725 3.19375L9.6025 11.3381L1.07875 13.7744C0.81 13.8506 0.625 14.0962 0.625 14.375V22.5C0.625 22.845 0.904375 23.125 1.25 23.125H4.41188C4.72375 25.9331 7.10938 28.125 10 28.125C12.8906 28.125 15.2762 25.9331 15.5881 23.125H17.5825L17.92 23.6319C18.8719 25.0594 19.375 26.7213 19.375 28.4375C19.375 30.1537 18.8719 31.8156 17.92 33.2431L17.4637 33.9281C17.0787 34.5056 16.8756 35.1781 16.8756 35.8713C16.875 37.8031 18.4469 39.375 20.3781 39.375C21.0719 39.375 21.7444 39.1712 22.3213 38.7869L22.7463 38.5037C23.4469 38.0369 24.205 37.6706 24.9994 37.3994V39.375H26.2494V36.875C26.2494 36.6662 26.145 36.4712 25.9713 36.355L22.5 34.0406V31.875C22.5 31.5306 22.78 31.25 23.125 31.25C23.47 31.25 23.75 31.5306 23.75 31.875V33.75H25V31.875V25.625C25 25.2806 25.28 25 25.625 25C25.97 25 26.25 25.2806 26.25 25.625V26.875V30H27.5V26.875V25.625V24.375C27.5 24.0306 27.78 23.75 28.125 23.75C28.47 23.75 28.75 24.0306 28.75 24.375V25.625V26.875V30H30V26.875V25.625C30 25.2806 30.28 25 30.625 25C30.97 25 31.25 25.2806 31.25 25.625V28.125V30H32.5V28.125C32.5 27.7806 32.78 27.5 33.125 27.5C33.47 27.5 33.75 27.7806 33.75 28.125V34.7412L32.6831 35.8081C32.5656 35.925 32.5 36.0844 32.5 36.25V39.375H33.75V38.6675L33.9281 38.7862C34.5056 39.1712 35.1775 39.375 35.8719 39.375C37.8031 39.375 39.375 37.8031 39.375 35.8719C39.375 35.1781 39.1719 34.5062 38.7869 33.9287L38.3306 33.2437C37.3781 31.8156 36.875 30.1537 36.875 28.4375C36.875 26.7213 37.3781 25.0594 38.33 23.6319L38.7862 22.9469C39.1712 22.3694 39.3744 21.6969 39.3744 21.0037C39.375 19.0719 37.8031 17.5 35.8719 17.5C35.1781 17.5 34.5056 17.7038 33.9287 18.0881L33.5037 18.3713C31.9056 19.4369 30.0456 20 28.125 20C26.2044 20 24.3444 19.4369 22.7469 18.3719L22.3219 18.0887C21.7444 17.7037 21.0725 17.5 20.3781 17.5C18.4469 17.5 16.875 19.0719 16.875 21.0031C16.875 21.3 16.92 21.5912 16.9925 21.875H15.5881C15.2762 19.0669 12.8906 16.875 10 16.875C7.10938 16.875 4.72375 19.0669 4.41188 21.875H1.875V18.125H3.75C4.09562 18.125 4.375 17.845 4.375 17.5V14.1319L10.1713 12.4756C10.3169 12.4344 10.4425 12.3412 10.5244 12.2144L15.9219 3.87313C16.7319 2.62187 18.105 1.875 19.5956 1.875H29.7769C31.5569 1.875 33.145 2.93875 33.8225 4.58437L36.9225 12.1131C37.0181 12.3469 37.2469 12.5 37.5 12.5ZM20.3781 18.75C20.8244 18.75 21.2563 18.8806 21.6281 19.1281L22.0531 19.4113C23.8575 20.6144 25.9569 21.25 28.125 21.25C30.2931 21.25 32.3925 20.6144 34.1969 19.4119L34.6219 19.1287C34.9938 18.8813 35.4256 18.7506 35.8719 18.7506C37.1144 18.75 38.125 19.7606 38.125 21.0031C38.125 21.4494 37.9944 21.8819 37.7469 22.2531L37.2906 22.9381C36.2006 24.5719 35.625 26.4731 35.625 28.4375C35.625 30.4019 36.2006 32.3031 37.29 33.9369L37.7463 34.6219C37.9938 34.9931 38.1244 35.4256 38.1244 35.8719C38.125 37.1144 37.1144 38.125 35.8719 38.125C35.4256 38.125 34.9938 37.9944 34.6219 37.7469L34.1969 37.4638C34.0513 37.3669 33.8994 37.2812 33.75 37.1919V36.5094L34.8169 35.4425C34.9344 35.325 35 35.1656 35 35V28.125C35 27.0912 34.1587 26.25 33.125 26.25C32.905 26.25 32.6963 26.295 32.5 26.365V25.625C32.5 24.5912 31.6588 23.75 30.625 23.75C30.3781 23.75 30.1437 23.8006 29.9275 23.8875C29.7119 23.0906 28.9894 22.5 28.125 22.5C27.2606 22.5 26.5388 23.0906 26.3225 23.8875C26.1063 23.8006 25.8719 23.75 25.625 23.75C24.5912 23.75 23.75 24.5912 23.75 25.625V30.115C23.5537 30.045 23.345 30 23.125 30C22.0912 30 21.25 30.8412 21.25 31.875V34.375C21.25 34.5838 21.3544 34.7788 21.5281 34.895L23.905 36.4794C23.26 36.7494 22.6381 37.0731 22.0531 37.4631L21.6281 37.7463C21.2563 37.9938 20.8244 38.1244 20.3781 38.1244C19.1356 38.125 18.125 37.1144 18.125 35.8719C18.125 35.4256 18.2556 34.9931 18.5031 34.6219L18.9594 33.9369C20.0494 32.3031 20.625 30.4019 20.625 28.4375C20.625 26.4731 20.0494 24.5719 18.96 22.9381L18.5037 22.2531C18.2563 21.8819 18.1256 21.4494 18.1256 21.0031C18.125 19.7606 19.1356 18.75 20.3781 18.75ZM10 18.125C12.4119 18.125 14.375 20.0875 14.375 22.5C14.375 24.9125 12.4119 26.875 10 26.875C7.58813 26.875 5.625 24.9125 5.625 22.5C5.625 20.0875 7.58813 18.125 10 18.125ZM3.125 16.875H1.875V14.8462L3.125 14.4894V16.875Z" fill="#077187"/>
<path d="M10 25.625C11.7231 25.625 13.125 24.2231 13.125 22.5C13.125 20.7769 11.7231 19.375 10 19.375C8.27688 19.375 6.875 20.7769 6.875 22.5C6.875 24.2231 8.27688 25.625 10 25.625ZM10 20.625C11.0338 20.625 11.875 21.4662 11.875 22.5C11.875 23.5338 11.0338 24.375 10 24.375C8.96625 24.375 8.125 23.5338 8.125 22.5C8.125 21.4662 8.96625 20.625 10 20.625Z" fill="#077187"/>
<path d="M34.89 12.2288C35.0069 12.0594 35.0325 11.8431 34.9581 11.6506L32.45 5.12812C31.9887 3.93 30.8162 3.125 29.5331 3.125H20.1469C19.0537 3.125 18.0587 3.68125 17.485 4.6125L13.2175 11.5475C13.0987 11.7406 13.0937 11.9819 13.2044 12.18C13.315 12.3781 13.5237 12.5 13.75 12.5H34.375C34.5806 12.5 34.7737 12.3988 34.89 12.2288ZM18.55 5.2675C18.8937 4.70875 19.4912 4.375 20.1469 4.375H23.75V11.25H14.8681L18.55 5.2675ZM25 11.25V4.375H29.5331C30.3025 4.375 31.0062 4.85813 31.2831 5.57688L33.465 11.25H25Z" fill="#077187"/>
<path d="M22.5 13.75H25V15H22.5V13.75Z" fill="#077187"/>
<path d="M32.5 13.75H35V15H32.5V13.75Z" fill="#077187"/>
<path d="M15 35C13.6213 35 12.5 33.8788 12.5 32.5C12.5 32.155 12.2206 31.875 11.875 31.875C11.5294 31.875 11.25 32.155 11.25 32.5C11.25 33.8788 10.1288 35 8.75 35C8.40438 35 8.125 35.28 8.125 35.625C8.125 35.97 8.40438 36.25 8.75 36.25C10.1288 36.25 11.25 37.3713 11.25 38.75C11.25 39.095 11.5294 39.375 11.875 39.375C12.2206 39.375 12.5 39.095 12.5 38.75C12.5 37.3713 13.6213 36.25 15 36.25C15.3456 36.25 15.625 35.97 15.625 35.625C15.625 35.28 15.3456 35 15 35ZM11.875 36.6794C11.5975 36.2619 11.2381 35.9031 10.8206 35.625C11.2381 35.3475 11.5969 34.9881 11.875 34.5706C12.1525 34.9881 12.5119 35.3469 12.9294 35.625C12.5119 35.9025 12.1525 36.2619 11.875 36.6794Z" fill="#077187"/>
<path d="M7.5 30.625C6.12125 30.625 5 29.5038 5 28.125C5 27.78 4.72062 27.5 4.375 27.5C4.02938 27.5 3.75 27.78 3.75 28.125C3.75 29.5038 2.62875 30.625 1.25 30.625C0.904375 30.625 0.625 30.905 0.625 31.25C0.625 31.595 0.904375 31.875 1.25 31.875C2.62875 31.875 3.75 32.9963 3.75 34.375C3.75 34.72 4.02938 35 4.375 35C4.72062 35 5 34.72 5 34.375C5 32.9963 6.12125 31.875 7.5 31.875C7.84562 31.875 8.125 31.595 8.125 31.25C8.125 30.905 7.84562 30.625 7.5 30.625ZM4.375 32.3044C4.0975 31.8869 3.73813 31.5275 3.32063 31.25C3.73813 30.9725 4.0975 30.6131 4.375 30.1956C4.6525 30.6131 5.01188 30.9725 5.42938 31.25C5.01188 31.5275 4.6525 31.8869 4.375 32.3044Z" fill="#077187"/>
<path d="M1.25 5C2.62875 5 3.75 6.12125 3.75 7.5C3.75 7.845 4.02938 8.125 4.375 8.125C4.72062 8.125 5 7.845 5 7.5C5 6.12125 6.12125 5 7.5 5C7.84562 5 8.125 4.72 8.125 4.375C8.125 4.03 7.84562 3.75 7.5 3.75C6.12125 3.75 5 2.62875 5 1.25C5 0.905 4.72062 0.625 4.375 0.625C4.02938 0.625 3.75 0.905 3.75 1.25C3.75 2.62875 2.62875 3.75 1.25 3.75C0.904375 3.75 0.625 4.03 0.625 4.375C0.625 4.72 0.904375 5 1.25 5ZM4.375 3.32063C4.6525 3.73813 5.01188 4.0975 5.42938 4.375C5.01188 4.6525 4.6525 5.01188 4.375 5.42938C4.0975 5.01188 3.73813 4.6525 3.32063 4.375C3.73813 4.0975 4.0975 3.73813 4.375 3.32063Z" fill="#077187"/>
</svg>
