<svg width="40" height="40" viewBox="0 0 40 40" fill="none" xmlns="http://www.w3.org/2000/svg">
<path d="M27.0311 35.0781C26.5999 35.0781 26.2499 35.4281 26.2499 35.8593C26.2499 36.2906 26.5999 36.6406 27.0311 36.6406C27.4624 36.6406 27.8124 36.2906 27.8124 35.8593C27.8124 35.4281 27.4624 35.0781 27.0311 35.0781Z" fill="#0B768C"/>
<path d="M34.4084 28.1082C33.6127 26.9377 32.4963 26.0437 31.1801 25.5227L25.4491 23.2546C26.9478 21.7967 27.8124 19.7869 27.8124 17.6562C27.8124 16.8138 27.6806 15.9933 27.4207 15.2077C27.6593 15.0704 27.8124 14.8144 27.8124 14.5312V12.1376L29.1759 9.41045L30.5055 8.74569C30.7703 8.61334 30.9374 8.3428 30.9374 8.04694V5.70311C30.9374 5.36686 30.7222 5.06835 30.4031 4.96194L28.1814 4.2214L22.8152 0.158359C22.6795 0.0556249 22.5139 0 22.3436 0H17.6561C17.4858 0 17.3203 0.0556249 17.1846 0.158359L11.8183 4.22132L9.59662 4.96187C9.27756 5.06819 9.06241 5.36679 9.06241 5.70304V8.04678C9.06241 8.34272 9.22959 8.61319 9.49428 8.74553L10.8239 9.41029L12.1874 12.1374V14.5312C12.1874 14.8144 12.3403 15.0703 12.579 15.2077C12.3189 15.9931 12.1874 16.8134 12.1874 17.6562C12.1874 19.7868 13.0519 21.7965 14.55 23.254L8.81858 25.5228C7.50256 26.0436 6.38647 26.9377 5.59093 28.1082C4.79538 29.2785 4.37499 30.6451 4.37499 32.0601V39.2187C4.37499 39.6502 4.72484 39.9999 5.15624 39.9999H19.2177C19.2183 39.9999 19.2189 40 19.2195 40C19.22 40 19.2207 39.9999 19.2212 39.9999H20.7788C20.7793 39.9999 20.78 40 20.7805 40C20.7811 40 20.7817 39.9999 20.7823 39.9999H34.8438C35.2752 39.9999 35.625 39.6502 35.625 39.2187V32.0609C35.6249 30.6456 35.2042 29.2788 34.4084 28.1082ZM27.9041 25.9066L23.1249 33.8242V31.4585C23.1249 30.954 22.9582 30.4544 22.6561 30.0523L21.2771 28.2135C21.9186 27.7949 22.3436 27.0714 22.3436 26.25V25.1096C22.9256 24.9271 23.4818 24.678 24.0057 24.3639L27.9041 25.9066ZM12.1049 8.47873C12.0293 8.32756 11.9067 8.20491 11.7554 8.12936L10.6248 7.56405V6.26624L12.4344 5.66304C12.5151 5.63608 12.591 5.59616 12.6589 5.54475L17.9185 1.5625H22.0812L27.3407 5.54475C27.4086 5.59616 27.4845 5.63608 27.5653 5.66304L29.3748 6.26624V7.56405L28.2442 8.12936C28.0929 8.20498 27.9703 8.32756 27.8947 8.47873L26.5482 11.1719H13.4515L12.1049 8.47873ZM13.7499 12.7344H26.2499V13.9654L24.2068 14.6374C22.8431 15.0854 21.4248 15.3125 19.9912 15.3125C19.2729 15.3125 18.5501 15.2546 17.8431 15.1404C17.1375 15.0265 16.4328 14.8543 15.7492 14.6286L14.2402 14.1293C14.173 14.0509 14.0893 13.9845 13.9906 13.9363C13.9126 13.8983 13.8315 13.875 13.7499 13.8642V12.7344ZM13.7499 17.6562C13.7499 16.9876 13.8537 16.3372 14.0578 15.7147L15.2589 16.1122C16.0214 16.3639 16.807 16.5559 17.5941 16.683C18.3832 16.8104 19.1897 16.875 19.9913 16.875C21.5907 16.875 23.1732 16.6217 24.6948 16.1218L25.9417 15.7119C26.1462 16.3354 26.2499 16.9869 26.2499 17.6563C26.2499 19.7298 25.2263 21.6607 23.5102 22.8278C23.4981 22.8354 23.4864 22.8437 23.4747 22.8519C22.8383 23.2792 22.137 23.582 21.3895 23.7515C20.4845 23.9571 19.5156 23.9571 18.6103 23.7515C17.8586 23.581 17.1526 23.2754 16.5115 22.8428C14.7822 21.6779 13.7499 19.739 13.7499 17.6562ZM20.7811 25.4292V26.25C20.7811 26.6807 20.4306 27.0312 19.9999 27.0312C19.7914 27.0312 19.5953 26.9499 19.4477 26.8022C19.3 26.6546 19.2186 26.4584 19.2186 26.25V25.4292C19.4778 25.455 19.7386 25.4687 19.9999 25.4687C20.2612 25.4687 20.522 25.455 20.7811 25.4292ZM15.9933 24.3631C16.5179 24.6777 17.0743 24.9271 17.6561 25.1095V26.25C17.6561 26.8757 17.9 27.4642 18.3429 27.9071C18.4597 28.0239 18.5868 28.1264 18.7218 28.2146L17.344 30.0517C17.0415 30.4544 16.8749 30.954 16.8749 31.4585V33.8245L12.0957 25.906L15.9933 24.3631ZM5.93741 38.4374V32.0601C5.93741 29.8024 7.29405 27.8066 9.39358 26.9756L10.6226 26.4891L16.9225 36.9271L17.8343 38.4374H5.93741ZM21.5623 36.4127L20.3402 38.4374H19.6595L18.4373 36.4132V31.4585C18.4373 31.2903 18.4926 31.1241 18.5936 30.9898L19.9998 29.1146L21.4064 30.9903C21.507 31.1241 21.5623 31.2903 21.5623 31.4585V36.4127ZM22.1653 38.4374L29.3773 26.4896L30.6053 26.9757C32.7054 27.8068 34.0624 29.8029 34.0624 32.0609V38.4374H22.1653Z" fill="#0B768C"/>
<path d="M19.9999 3.35938C18.2768 3.35938 16.8749 4.76125 16.8749 6.48437C16.8749 8.20749 18.2768 9.60936 19.9999 9.60936C21.723 9.60936 23.1249 8.20749 23.1249 6.48437C23.1249 4.76125 21.723 3.35938 19.9999 3.35938ZM19.9999 8.04687C19.1383 8.04687 18.4374 7.34593 18.4374 6.48437C18.4374 5.62281 19.1382 4.92187 19.9999 4.92187C20.8614 4.92187 21.5624 5.62281 21.5624 6.48437C21.5624 7.34593 20.8614 8.04687 19.9999 8.04687Z" fill="#0B768C"/>
<path d="M31.7186 35.0781H30.1561C29.7247 35.0781 29.3749 35.4278 29.3749 35.8593C29.3749 36.2908 29.7247 36.6406 30.1561 36.6406H31.7186C32.15 36.6406 32.4999 36.2908 32.4999 35.8593C32.4999 35.4278 32.15 35.0781 31.7186 35.0781Z" fill="#0B768C"/>
</svg>
