<svg width="40" height="40" viewBox="0 0 40 40" fill="none" xmlns="http://www.w3.org/2000/svg">
<path d="M24.5425 26.875H24.36C23.8225 26.875 23.2975 27.0625 22.8825 27.4025L18.0925 31.3219C17.9575 30.5681 17.415 29.9475 16.6581 29.7206L12.2206 28.3894C11.6375 28.2138 11.0331 28.125 10.4244 28.125H10.2706C9.165 28.125 8.07625 28.4194 7.12125 28.9762L0.935 32.5844C0.743125 32.6969 0.625 32.9031 0.625 33.125V38.75C0.625 38.945 0.71625 39.1281 0.870625 39.2469C0.980625 39.3312 1.11437 39.375 1.25 39.375C1.305 39.375 1.36 39.3675 1.41438 39.3531L8.20875 37.5H18.125C18.2725 37.5 18.4156 37.4475 18.5287 37.3525L26.0488 30.9888C26.5738 30.545 26.875 29.8956 26.875 29.2075C26.875 27.9219 25.8288 26.875 24.5425 26.875ZM25.2419 30.0344L17.8962 36.25H8.125C8.06938 36.25 8.01438 36.2575 7.96063 36.2719L1.875 37.9312V33.4838L7.75125 30.0563C8.515 29.6106 9.38625 29.375 10.2706 29.375H10.4244C10.9113 29.375 11.3944 29.4456 11.8612 29.5863L16.2987 30.9175C16.6431 31.0206 16.875 31.3319 16.875 31.6913C16.875 32.1375 16.5125 32.5 16.0669 32.5H11.875V33.75H16.875C17.0194 33.75 17.1594 33.7 17.2706 33.6087L23.6744 28.3694C23.8669 28.2119 24.11 28.125 24.36 28.125H24.5425C25.1394 28.125 25.625 28.6106 25.625 29.2075C25.625 29.5269 25.485 29.8288 25.2419 30.0344Z" fill="#0B768C"/>
<path d="M38.75 5H35.8394L30.3837 0.756875C30.2737 0.67125 30.1388 0.625 30 0.625H13.125C11.7462 0.625 10.625 1.74625 10.625 3.125C10.625 4.50375 11.7462 5.625 13.125 5.625H19.3244L17.6369 7.73438C17.5481 7.84562 17.5 7.9825 17.5 8.125V9.375H16.25C15.2162 9.375 14.375 10.2163 14.375 11.25V13.75C14.375 14.7837 15.2162 15.625 16.25 15.625V16.875H14.375C14.03 16.875 13.75 17.1544 13.75 17.5V21.25C13.75 21.5956 14.03 21.875 14.375 21.875H15V26.875C15 27.0413 15.0656 27.2 15.1831 27.3169L16.4331 28.5669C16.555 28.6888 16.715 28.75 16.875 28.75C17.035 28.75 17.195 28.6888 17.3169 28.5669L18.5669 27.3169C18.6844 27.2 18.75 27.0413 18.75 26.875V25.625C18.75 25.5281 18.7275 25.4319 18.6844 25.3456L18.1988 24.375L18.6837 23.4044C18.7275 23.3181 18.75 23.2219 18.75 23.125V21.875H19.375C19.72 21.875 20 21.5956 20 21.25V17.5C20 17.1544 19.72 16.875 19.375 16.875H17.5V15.625H23.75C24.7837 15.625 25.625 14.7837 25.625 13.75V13.6613C25.8263 13.7137 26.0331 13.75 26.25 13.75H38.75C39.095 13.75 39.375 13.4706 39.375 13.125V5.625C39.375 5.27938 39.095 5 38.75 5ZM17.5 22.9775L16.9406 24.0956C16.8525 24.2713 16.8525 24.4788 16.9406 24.655L17.5 25.7725V26.6162L16.875 27.2412L16.25 26.6162V21.875H17.5V22.9775ZM18.75 20.625H15V18.125H18.75V20.625ZM23.75 14.375H16.25C15.9056 14.375 15.625 14.095 15.625 13.75V11.25C15.625 10.905 15.9056 10.625 16.25 10.625H23.8387C23.7862 10.8263 23.75 11.0331 23.75 11.25C23.75 11.8781 23.9906 12.4462 24.375 12.8862V13.75C24.375 14.095 24.0944 14.375 23.75 14.375ZM24.6138 9.375H22.5V8.97625L25.2925 5.625H27.8662L29.375 7.13375V8.75H26.25C25.6219 8.75 25.0538 8.99063 24.6138 9.375ZM38.125 12.5H26.25C25.5606 12.5 25 11.9394 25 11.25C25 10.5606 25.5606 10 26.25 10H30C30.345 10 30.625 9.72062 30.625 9.375V6.875C30.625 6.70875 30.5594 6.55 30.4419 6.43313L28.5669 4.55813C28.45 4.44063 28.2906 4.375 28.125 4.375H25C24.8144 4.375 24.6387 4.4575 24.52 4.59938L21.395 8.34938C21.3012 8.46187 21.25 8.60375 21.25 8.75V9.375H18.75V8.34437L21.1131 5.39062C21.2631 5.2025 21.2925 4.94562 21.1888 4.72875C21.0844 4.51312 20.865 4.375 20.625 4.375H13.125C12.4356 4.375 11.875 3.81437 11.875 3.125C11.875 2.43562 12.4356 1.875 13.125 1.875H29.7856L35.2413 6.11812C35.3513 6.20375 35.4862 6.25 35.625 6.25H38.125V12.5Z" fill="#0B768C"/>
</svg>
